<svg width="40" height="39" viewBox="0 0 40 39" fill="none" xmlns="http://www.w3.org/2000/svg">
<mask id="path-1-inside-1_608_9576" fill="white">
<path fill-rule="evenodd" clip-rule="evenodd" d="M33.5513 17.2388C33.3303 17.4967 33.0562 17.7038 32.7476 17.8458C32.4391 17.9877 32.1034 18.0612 31.7638 18.0613C31.7013 18.0613 31.6425 18.0488 31.58 18.0438C31.3161 18.4871 31.0123 18.9055 30.6725 19.2938L29.9788 20.08L31.2038 21.3038C32.7923 22.8963 33.6844 25.0538 33.6844 27.3031C33.6844 29.5525 32.7923 31.71 31.2038 33.3025C29.6111 34.8911 27.4533 35.7833 25.2038 35.7833C22.9542 35.7833 20.7965 34.8911 19.2038 33.3025L17.6238 34.8813C18.6185 35.8769 19.8 36.6662 21.1006 37.204C22.4012 37.7418 23.7952 38.0174 25.2025 38.015C26.6099 38.0175 28.0039 37.742 29.3045 37.2042C30.6051 36.6664 31.7867 35.877 32.7813 34.8813C36.885 30.7775 36.9588 24.1463 33.0025 19.9513C33.4973 19.2563 33.9065 18.5042 34.2213 17.7113C33.9828 17.5764 33.7584 17.4181 33.5513 17.2388ZM19.825 23.8613L10 33.6863L11.58 35.2625L21.4025 25.4388L19.8238 23.86L19.825 23.8613ZM16.2338 20.21L6.41004 30.0338L7.99004 31.6125L17.8138 21.7888L16.2338 20.21ZM12.62 16.5625L2.79504 26.3875L4.37504 27.965L14.1988 18.1413L12.62 16.5625ZM18.07 5.02001C13.8763 1.06376 7.24504 1.13626 3.14004 5.24126C2.14162 6.2342 1.35002 7.41529 0.811041 8.71617C0.272065 10.017 -0.00358714 11.4119 3.52429e-05 12.82C3.52429e-05 15.6825 1.11629 18.375 3.14004 20.3988L4.72004 18.82C3.92981 18.0338 3.3033 17.0987 2.87676 16.0688C2.45022 15.0389 2.23211 13.9347 2.23504 12.82C2.23504 10.5538 3.11754 8.42251 4.72004 6.82001C6.31276 5.23139 8.47049 4.33926 10.72 4.33926C12.9696 4.33926 15.1273 5.23139 16.72 6.82001L17.945 8.04376L18.73 7.35001C19.6401 6.54738 20.7136 5.95199 21.8763 5.60501C21.7669 5.36562 21.7098 5.10569 21.7088 4.84251C21.7088 4.74251 21.7225 4.64751 21.7363 4.55376C21.5685 4.60768 21.3937 4.63633 21.2175 4.63876C20.6675 4.63876 20.175 4.39126 19.8363 4.00876C19.2238 4.28751 18.6325 4.61751 18.07 5.02001ZM35.32 19.1238C35.2415 19.1236 35.1637 19.1389 35.091 19.1688C35.0184 19.1987 34.9524 19.2426 34.8967 19.2981C34.7843 19.41 34.721 19.562 34.7207 19.7206C34.7203 19.8793 34.783 20.0315 34.895 20.1439C35.0069 20.2563 35.1589 20.3197 35.3175 20.32C35.4762 20.3202 35.6284 20.2573 35.7407 20.1453C35.8529 20.0332 35.9161 19.8811 35.9163 19.7225C35.9165 19.5639 35.8536 19.4117 35.7415 19.2994C35.6295 19.1871 35.4787 19.1239 35.32 19.1238ZM38.4113 17.2238C38.035 17.2238 37.6741 17.3732 37.4081 17.6393C37.142 17.9054 36.9925 18.2662 36.9925 18.6425C36.9925 19.0188 37.142 19.3796 37.4081 19.6457C37.6741 19.9118 38.035 20.0613 38.4113 20.0613C38.7876 20.0613 39.1484 19.9118 39.4145 19.6457C39.6806 19.3796 39.83 19.0188 39.83 18.6425C39.83 18.2662 39.6806 17.9054 39.4145 17.6393C39.1484 17.3732 38.7876 17.2238 38.4113 17.2238ZM26.3763 15.6613C26.0758 15.6613 25.7875 15.7806 25.575 15.9931C25.3625 16.2056 25.2432 16.4939 25.2432 16.7944C25.2432 17.0949 25.3625 17.3831 25.575 17.5956C25.7875 17.8081 26.0758 17.9275 26.3763 17.9275C26.677 17.9275 26.9653 17.8081 27.178 17.5954C27.3906 17.3828 27.51 17.0944 27.51 16.7938C27.51 16.4931 27.3906 16.2047 27.178 15.9921C26.9653 15.7795 26.677 15.6613 26.3763 15.6613ZM31.7675 14.5925C31.6188 14.5852 31.4702 14.6082 31.3307 14.6601C31.1911 14.712 31.0636 14.7916 30.9557 14.8942C30.8479 14.9968 30.762 15.1202 30.7032 15.257C30.6444 15.3938 30.614 15.5411 30.6139 15.6899C30.6137 15.8388 30.6438 15.9862 30.7022 16.1231C30.7607 16.26 30.8463 16.3836 30.9539 16.4865C31.0615 16.5893 31.1889 16.6692 31.3283 16.7214C31.4678 16.7736 31.6163 16.7969 31.765 16.79C32.0474 16.7769 32.3139 16.6555 32.5091 16.4512C32.7044 16.2468 32.8136 15.9751 32.8139 15.6924C32.8142 15.4098 32.7057 15.1378 32.5109 14.933C32.3161 14.7282 32.0499 14.6063 31.7675 14.5925ZM22.055 14.2625C21.906 14.2627 21.7584 14.2922 21.6208 14.3494C21.4831 14.4066 21.3581 14.4903 21.2528 14.5958C21.1476 14.7013 21.0641 14.8265 21.0072 14.9643C20.9503 15.1021 20.9211 15.2497 20.9213 15.3988C20.9214 15.5478 20.951 15.6954 21.0082 15.833C21.0654 15.9706 21.1491 16.0957 21.2546 16.201C21.3601 16.3062 21.4853 16.3897 21.6231 16.4466C21.7609 16.5035 21.9085 16.5327 22.0575 16.5325C22.3586 16.5322 22.6471 16.4123 22.8597 16.1992C23.0724 15.9861 23.1916 15.6973 23.1913 15.3963C23.191 15.0952 23.0711 14.8067 22.858 14.5941C22.6449 14.3814 22.3561 14.2622 22.055 14.2625ZM36.6363 11.2975C36.3693 11.2974 36.1049 11.3499 35.8582 11.452C35.6115 11.5541 35.3873 11.7038 35.1985 11.8926C35.0096 12.0813 34.8598 12.3054 34.7575 12.552C34.6553 12.7986 34.6026 13.063 34.6025 13.33C34.6025 13.597 34.655 13.8614 34.7571 14.1081C34.8592 14.3548 35.0088 14.579 35.1976 14.7678C35.3863 14.9567 35.6104 15.1065 35.857 15.2088C36.1037 15.311 36.368 15.3637 36.635 15.3638C37.1743 15.3639 37.6915 15.1499 38.0729 14.7687C38.4543 14.3875 38.6686 13.8705 38.6688 13.3313C38.6689 12.792 38.4549 12.2748 38.0737 11.8934C37.6926 11.512 37.1755 11.2977 36.6363 11.2975ZM26.9425 11.6613C26.795 11.6564 26.6481 11.6812 26.5104 11.7343C26.3727 11.7874 26.2471 11.8676 26.141 11.9703C26.035 12.0729 25.9507 12.1958 25.8932 12.3317C25.8356 12.4676 25.806 12.6137 25.8061 12.7613C25.8062 12.9089 25.836 13.0549 25.8937 13.1907C25.9513 13.3266 26.0358 13.4494 26.1419 13.5519C26.2481 13.6544 26.3738 13.7345 26.5115 13.7875C26.6493 13.8404 26.7963 13.8651 26.9438 13.86C27.2289 13.8504 27.4992 13.7304 27.6975 13.5252C27.8958 13.3201 28.0067 13.046 28.0067 12.7606C28.0067 12.4753 27.8958 12.2012 27.6975 11.996C27.4992 11.7909 27.2277 11.6709 26.9425 11.6613ZM30.425 10.0913C30.0186 10.0911 29.6287 10.2524 29.3412 10.5397C29.0537 10.827 28.8921 11.2167 28.8919 11.6231C28.8917 12.0296 29.053 12.4194 29.3403 12.707C29.6276 12.9945 30.0173 13.1561 30.4238 13.1563C30.8302 13.1564 31.2201 12.9951 31.5076 12.7078C31.7951 12.4206 31.9567 12.0308 31.9569 11.6244C31.9571 11.2179 31.7958 10.8281 31.5085 10.5406C31.2212 10.253 30.8315 10.0914 30.425 10.0913ZM22.39 8.83251C21.9834 8.83284 21.5936 8.99468 21.3063 9.28243C21.019 9.57018 20.8578 9.96027 20.8582 10.3669C20.8585 10.7735 21.0203 11.1633 21.3081 11.4506C21.5958 11.7379 21.9859 11.8991 22.3925 11.8988C22.7991 11.8984 23.189 11.7366 23.4763 11.4488C23.7635 11.1611 23.9247 10.771 23.9244 10.3644C23.9241 9.95777 23.7622 9.56795 23.4745 9.28066C23.1867 8.99338 22.7966 8.83218 22.39 8.83251ZM33.9013 8.43751C33.525 8.43751 33.1641 8.58698 32.8981 8.85305C32.632 9.11912 32.4825 9.47998 32.4825 9.85626C32.4825 10.2325 32.632 10.5934 32.8981 10.8595C33.1641 11.1255 33.525 11.275 33.9013 11.275C34.2776 11.275 34.6384 11.1255 34.9045 10.8595C35.1706 10.5934 35.32 10.2325 35.32 9.85626C35.32 9.47998 35.1706 9.11912 34.9045 8.85305C34.6384 8.58698 34.2776 8.43751 33.9013 8.43751ZM28.3163 4.53126C28.0493 4.53126 27.7849 4.58385 27.5382 4.68602C27.2916 4.78819 27.0674 4.93795 26.8787 5.12675C26.6899 5.31554 26.5401 5.53967 26.4379 5.78634C26.3358 6.03301 26.2832 6.29739 26.2832 6.56438C26.2832 6.83138 26.3358 7.09576 26.4379 7.34242C26.5401 7.5891 26.6899 7.81323 26.8787 8.00202C27.0674 8.19081 27.2916 8.34057 27.5382 8.44274C27.7849 8.54492 28.0493 8.59751 28.3163 8.59751C28.8468 8.58435 29.3511 8.36437 29.7217 7.98452C30.0922 7.60467 30.2996 7.09504 30.2996 6.56438C30.2996 6.03373 30.0922 5.52409 29.7217 5.14424C29.3511 4.76439 28.8468 4.54441 28.3163 4.53126ZM33.1288 5.21126C32.8911 5.21126 32.6631 5.30568 32.495 5.47376C32.327 5.64184 32.2325 5.86981 32.2325 6.10751C32.2325 6.34521 32.327 6.57317 32.495 6.74125C32.6631 6.90933 32.8911 7.00376 33.1288 7.00376C33.3665 7.00376 33.5945 6.90933 33.7625 6.74125C33.9306 6.57317 34.025 6.34521 34.025 6.10751C34.025 5.86981 33.9306 5.64184 33.7625 5.47376C33.5945 5.30568 33.3665 5.21126 33.1288 5.21126ZM23.56 3.94626C23.3223 3.94626 23.0944 4.04068 22.9263 4.20876C22.7582 4.37684 22.6638 4.60481 22.6638 4.84251C22.6638 5.08021 22.7582 5.30817 22.9263 5.47625C23.0944 5.64433 23.3223 5.73876 23.56 5.73876C23.7977 5.73876 24.0257 5.64433 24.1938 5.47625C24.3619 5.30817 24.4563 5.08021 24.4563 4.84251C24.4563 4.60481 24.3619 4.37684 24.1938 4.20876C24.0257 4.04068 23.7977 3.94626 23.56 3.94626ZM21.2175 1.89001C21.0998 1.89001 20.9833 1.91319 20.8746 1.95823C20.7658 2.00327 20.667 2.06929 20.5838 2.15251C20.5006 2.23574 20.4345 2.33454 20.3895 2.44328C20.3445 2.55201 20.3213 2.66856 20.3213 2.78626C20.3213 2.90395 20.3445 3.0205 20.3895 3.12924C20.4345 3.23797 20.5006 3.33678 20.5838 3.42C20.667 3.50323 20.7658 3.56924 20.8746 3.61428C20.9833 3.65932 21.0998 3.68251 21.2175 3.68251C21.4552 3.68251 21.6832 3.58808 21.8513 3.42C22.0194 3.25192 22.1138 3.02396 22.1138 2.78626C22.1138 2.54856 22.0194 2.32059 21.8513 2.15251C21.6832 1.98443 21.4552 1.89001 21.2175 1.89001ZM26.6275 1.32751C26.3358 1.32751 26.056 1.4434 25.8497 1.64969C25.6434 1.85598 25.5275 2.13577 25.5275 2.42751C25.5275 2.71925 25.6434 2.99903 25.8497 3.20532C26.056 3.41161 26.3358 3.52751 26.6275 3.52751C26.9193 3.52751 27.1991 3.41161 27.4054 3.20532C27.6116 2.99903 27.7275 2.71925 27.7275 2.42751C27.7275 2.13577 27.6116 1.85598 27.4054 1.64969C27.1991 1.4434 26.9193 1.32751 26.6275 1.32751ZM16.9325 0.941257C16.6988 0.941257 16.4747 1.0341 16.3094 1.19937C16.1441 1.36464 16.0513 1.58878 16.0513 1.82251C16.0513 2.05623 16.1441 2.28038 16.3094 2.44564C16.4747 2.61091 16.6988 2.70376 16.9325 2.70376C17.1663 2.70376 17.3904 2.61091 17.5557 2.44564C17.7209 2.28038 17.8138 2.05623 17.8138 1.82251C17.8138 1.58878 17.7209 1.36464 17.5557 1.19937C17.3904 1.0341 17.1663 0.941257 16.9325 0.941257ZM19.5563 6.72056e-06C19.4951 0.000252948 19.4346 0.0125403 19.3782 0.0361677C19.3218 0.059795 19.2707 0.0942999 19.2276 0.137711C19.1845 0.181123 19.1504 0.232591 19.1273 0.289177C19.1041 0.345764 19.0923 0.406359 19.0925 0.467506C19.0928 0.528653 19.1051 0.589153 19.1287 0.645551C19.1523 0.701949 19.1868 0.753141 19.2302 0.796204C19.2737 0.839268 19.3251 0.873359 19.3817 0.896531C19.4383 0.919703 19.4989 0.931503 19.56 0.931257C19.6835 0.930593 19.8017 0.880901 19.8886 0.793111C19.9754 0.70532 20.0238 0.586623 20.0232 0.463131C20.0225 0.33964 19.9728 0.221471 19.885 0.134618C19.7972 0.0477651 19.6798 -0.000656317 19.5563 6.72056e-06Z"/>
</mask>
<path fill-rule="evenodd" clip-rule="evenodd" d="M33.5513 17.2388C33.3303 17.4967 33.0562 17.7038 32.7476 17.8458C32.4391 17.9877 32.1034 18.0612 31.7638 18.0613C31.7013 18.0613 31.6425 18.0488 31.58 18.0438C31.3161 18.4871 31.0123 18.9055 30.6725 19.2938L29.9788 20.08L31.2038 21.3038C32.7923 22.8963 33.6844 25.0538 33.6844 27.3031C33.6844 29.5525 32.7923 31.71 31.2038 33.3025C29.6111 34.8911 27.4533 35.7833 25.2038 35.7833C22.9542 35.7833 20.7965 34.8911 19.2038 33.3025L17.6238 34.8813C18.6185 35.8769 19.8 36.6662 21.1006 37.204C22.4012 37.7418 23.7952 38.0174 25.2025 38.015C26.6099 38.0175 28.0039 37.742 29.3045 37.2042C30.6051 36.6664 31.7867 35.877 32.7813 34.8813C36.885 30.7775 36.9588 24.1463 33.0025 19.9513C33.4973 19.2563 33.9065 18.5042 34.2213 17.7113C33.9828 17.5764 33.7584 17.4181 33.5513 17.2388ZM19.825 23.8613L10 33.6863L11.58 35.2625L21.4025 25.4388L19.8238 23.86L19.825 23.8613ZM16.2338 20.21L6.41004 30.0338L7.99004 31.6125L17.8138 21.7888L16.2338 20.21ZM12.62 16.5625L2.79504 26.3875L4.37504 27.965L14.1988 18.1413L12.62 16.5625ZM18.07 5.02001C13.8763 1.06376 7.24504 1.13626 3.14004 5.24126C2.14162 6.2342 1.35002 7.41529 0.811041 8.71617C0.272065 10.017 -0.00358714 11.4119 3.52429e-05 12.82C3.52429e-05 15.6825 1.11629 18.375 3.14004 20.3988L4.72004 18.82C3.92981 18.0338 3.3033 17.0987 2.87676 16.0688C2.45022 15.0389 2.23211 13.9347 2.23504 12.82C2.23504 10.5538 3.11754 8.42251 4.72004 6.82001C6.31276 5.23139 8.47049 4.33926 10.72 4.33926C12.9696 4.33926 15.1273 5.23139 16.72 6.82001L17.945 8.04376L18.73 7.35001C19.6401 6.54738 20.7136 5.95199 21.8763 5.60501C21.7669 5.36562 21.7098 5.10569 21.7088 4.84251C21.7088 4.74251 21.7225 4.64751 21.7363 4.55376C21.5685 4.60768 21.3937 4.63633 21.2175 4.63876C20.6675 4.63876 20.175 4.39126 19.8363 4.00876C19.2238 4.28751 18.6325 4.61751 18.07 5.02001ZM35.32 19.1238C35.2415 19.1236 35.1637 19.1389 35.091 19.1688C35.0184 19.1987 34.9524 19.2426 34.8967 19.2981C34.7843 19.41 34.721 19.562 34.7207 19.7206C34.7203 19.8793 34.783 20.0315 34.895 20.1439C35.0069 20.2563 35.1589 20.3197 35.3175 20.32C35.4762 20.3202 35.6284 20.2573 35.7407 20.1453C35.8529 20.0332 35.9161 19.8811 35.9163 19.7225C35.9165 19.5639 35.8536 19.4117 35.7415 19.2994C35.6295 19.1871 35.4787 19.1239 35.32 19.1238ZM38.4113 17.2238C38.035 17.2238 37.6741 17.3732 37.4081 17.6393C37.142 17.9054 36.9925 18.2662 36.9925 18.6425C36.9925 19.0188 37.142 19.3796 37.4081 19.6457C37.6741 19.9118 38.035 20.0613 38.4113 20.0613C38.7876 20.0613 39.1484 19.9118 39.4145 19.6457C39.6806 19.3796 39.83 19.0188 39.83 18.6425C39.83 18.2662 39.6806 17.9054 39.4145 17.6393C39.1484 17.3732 38.7876 17.2238 38.4113 17.2238ZM26.3763 15.6613C26.0758 15.6613 25.7875 15.7806 25.575 15.9931C25.3625 16.2056 25.2432 16.4939 25.2432 16.7944C25.2432 17.0949 25.3625 17.3831 25.575 17.5956C25.7875 17.8081 26.0758 17.9275 26.3763 17.9275C26.677 17.9275 26.9653 17.8081 27.178 17.5954C27.3906 17.3828 27.51 17.0944 27.51 16.7938C27.51 16.4931 27.3906 16.2047 27.178 15.9921C26.9653 15.7795 26.677 15.6613 26.3763 15.6613ZM31.7675 14.5925C31.6188 14.5852 31.4702 14.6082 31.3307 14.6601C31.1911 14.712 31.0636 14.7916 30.9557 14.8942C30.8479 14.9968 30.762 15.1202 30.7032 15.257C30.6444 15.3938 30.614 15.5411 30.6139 15.6899C30.6137 15.8388 30.6438 15.9862 30.7022 16.1231C30.7607 16.26 30.8463 16.3836 30.9539 16.4865C31.0615 16.5893 31.1889 16.6692 31.3283 16.7214C31.4678 16.7736 31.6163 16.7969 31.765 16.79C32.0474 16.7769 32.3139 16.6555 32.5091 16.4512C32.7044 16.2468 32.8136 15.9751 32.8139 15.6924C32.8142 15.4098 32.7057 15.1378 32.5109 14.933C32.3161 14.7282 32.0499 14.6063 31.7675 14.5925ZM22.055 14.2625C21.906 14.2627 21.7584 14.2922 21.6208 14.3494C21.4831 14.4066 21.3581 14.4903 21.2528 14.5958C21.1476 14.7013 21.0641 14.8265 21.0072 14.9643C20.9503 15.1021 20.9211 15.2497 20.9213 15.3988C20.9214 15.5478 20.951 15.6954 21.0082 15.833C21.0654 15.9706 21.1491 16.0957 21.2546 16.201C21.3601 16.3062 21.4853 16.3897 21.6231 16.4466C21.7609 16.5035 21.9085 16.5327 22.0575 16.5325C22.3586 16.5322 22.6471 16.4123 22.8597 16.1992C23.0724 15.9861 23.1916 15.6973 23.1913 15.3963C23.191 15.0952 23.0711 14.8067 22.858 14.5941C22.6449 14.3814 22.3561 14.2622 22.055 14.2625ZM36.6363 11.2975C36.3693 11.2974 36.1049 11.3499 35.8582 11.452C35.6115 11.5541 35.3873 11.7038 35.1985 11.8926C35.0096 12.0813 34.8598 12.3054 34.7575 12.552C34.6553 12.7986 34.6026 13.063 34.6025 13.33C34.6025 13.597 34.655 13.8614 34.7571 14.1081C34.8592 14.3548 35.0088 14.579 35.1976 14.7678C35.3863 14.9567 35.6104 15.1065 35.857 15.2088C36.1037 15.311 36.368 15.3637 36.635 15.3638C37.1743 15.3639 37.6915 15.1499 38.0729 14.7687C38.4543 14.3875 38.6686 13.8705 38.6688 13.3313C38.6689 12.792 38.4549 12.2748 38.0737 11.8934C37.6926 11.512 37.1755 11.2977 36.6363 11.2975ZM26.9425 11.6613C26.795 11.6564 26.6481 11.6812 26.5104 11.7343C26.3727 11.7874 26.2471 11.8676 26.141 11.9703C26.035 12.0729 25.9507 12.1958 25.8932 12.3317C25.8356 12.4676 25.806 12.6137 25.8061 12.7613C25.8062 12.9089 25.836 13.0549 25.8937 13.1907C25.9513 13.3266 26.0358 13.4494 26.1419 13.5519C26.2481 13.6544 26.3738 13.7345 26.5115 13.7875C26.6493 13.8404 26.7963 13.8651 26.9438 13.86C27.2289 13.8504 27.4992 13.7304 27.6975 13.5252C27.8958 13.3201 28.0067 13.046 28.0067 12.7606C28.0067 12.4753 27.8958 12.2012 27.6975 11.996C27.4992 11.7909 27.2277 11.6709 26.9425 11.6613ZM30.425 10.0913C30.0186 10.0911 29.6287 10.2524 29.3412 10.5397C29.0537 10.827 28.8921 11.2167 28.8919 11.6231C28.8917 12.0296 29.053 12.4194 29.3403 12.707C29.6276 12.9945 30.0173 13.1561 30.4238 13.1563C30.8302 13.1564 31.2201 12.9951 31.5076 12.7078C31.7951 12.4206 31.9567 12.0308 31.9569 11.6244C31.9571 11.2179 31.7958 10.8281 31.5085 10.5406C31.2212 10.253 30.8315 10.0914 30.425 10.0913ZM22.39 8.83251C21.9834 8.83284 21.5936 8.99468 21.3063 9.28243C21.019 9.57018 20.8578 9.96027 20.8582 10.3669C20.8585 10.7735 21.0203 11.1633 21.3081 11.4506C21.5958 11.7379 21.9859 11.8991 22.3925 11.8988C22.7991 11.8984 23.189 11.7366 23.4763 11.4488C23.7635 11.1611 23.9247 10.771 23.9244 10.3644C23.9241 9.95777 23.7622 9.56795 23.4745 9.28066C23.1867 8.99338 22.7966 8.83218 22.39 8.83251ZM33.9013 8.43751C33.525 8.43751 33.1641 8.58698 32.8981 8.85305C32.632 9.11912 32.4825 9.47998 32.4825 9.85626C32.4825 10.2325 32.632 10.5934 32.8981 10.8595C33.1641 11.1255 33.525 11.275 33.9013 11.275C34.2776 11.275 34.6384 11.1255 34.9045 10.8595C35.1706 10.5934 35.32 10.2325 35.32 9.85626C35.32 9.47998 35.1706 9.11912 34.9045 8.85305C34.6384 8.58698 34.2776 8.43751 33.9013 8.43751ZM28.3163 4.53126C28.0493 4.53126 27.7849 4.58385 27.5382 4.68602C27.2916 4.78819 27.0674 4.93795 26.8787 5.12675C26.6899 5.31554 26.5401 5.53967 26.4379 5.78634C26.3358 6.03301 26.2832 6.29739 26.2832 6.56438C26.2832 6.83138 26.3358 7.09576 26.4379 7.34242C26.5401 7.5891 26.6899 7.81323 26.8787 8.00202C27.0674 8.19081 27.2916 8.34057 27.5382 8.44274C27.7849 8.54492 28.0493 8.59751 28.3163 8.59751C28.8468 8.58435 29.3511 8.36437 29.7217 7.98452C30.0922 7.60467 30.2996 7.09504 30.2996 6.56438C30.2996 6.03373 30.0922 5.52409 29.7217 5.14424C29.3511 4.76439 28.8468 4.54441 28.3163 4.53126ZM33.1288 5.21126C32.8911 5.21126 32.6631 5.30568 32.495 5.47376C32.327 5.64184 32.2325 5.86981 32.2325 6.10751C32.2325 6.34521 32.327 6.57317 32.495 6.74125C32.6631 6.90933 32.8911 7.00376 33.1288 7.00376C33.3665 7.00376 33.5945 6.90933 33.7625 6.74125C33.9306 6.57317 34.025 6.34521 34.025 6.10751C34.025 5.86981 33.9306 5.64184 33.7625 5.47376C33.5945 5.30568 33.3665 5.21126 33.1288 5.21126ZM23.56 3.94626C23.3223 3.94626 23.0944 4.04068 22.9263 4.20876C22.7582 4.37684 22.6638 4.60481 22.6638 4.84251C22.6638 5.08021 22.7582 5.30817 22.9263 5.47625C23.0944 5.64433 23.3223 5.73876 23.56 5.73876C23.7977 5.73876 24.0257 5.64433 24.1938 5.47625C24.3619 5.30817 24.4563 5.08021 24.4563 4.84251C24.4563 4.60481 24.3619 4.37684 24.1938 4.20876C24.0257 4.04068 23.7977 3.94626 23.56 3.94626ZM21.2175 1.89001C21.0998 1.89001 20.9833 1.91319 20.8746 1.95823C20.7658 2.00327 20.667 2.06929 20.5838 2.15251C20.5006 2.23574 20.4345 2.33454 20.3895 2.44328C20.3445 2.55201 20.3213 2.66856 20.3213 2.78626C20.3213 2.90395 20.3445 3.0205 20.3895 3.12924C20.4345 3.23797 20.5006 3.33678 20.5838 3.42C20.667 3.50323 20.7658 3.56924 20.8746 3.61428C20.9833 3.65932 21.0998 3.68251 21.2175 3.68251C21.4552 3.68251 21.6832 3.58808 21.8513 3.42C22.0194 3.25192 22.1138 3.02396 22.1138 2.78626C22.1138 2.54856 22.0194 2.32059 21.8513 2.15251C21.6832 1.98443 21.4552 1.89001 21.2175 1.89001ZM26.6275 1.32751C26.3358 1.32751 26.056 1.4434 25.8497 1.64969C25.6434 1.85598 25.5275 2.13577 25.5275 2.42751C25.5275 2.71925 25.6434 2.99903 25.8497 3.20532C26.056 3.41161 26.3358 3.52751 26.6275 3.52751C26.9193 3.52751 27.1991 3.41161 27.4054 3.20532C27.6116 2.99903 27.7275 2.71925 27.7275 2.42751C27.7275 2.13577 27.6116 1.85598 27.4054 1.64969C27.1991 1.4434 26.9193 1.32751 26.6275 1.32751ZM16.9325 0.941257C16.6988 0.941257 16.4747 1.0341 16.3094 1.19937C16.1441 1.36464 16.0513 1.58878 16.0513 1.82251C16.0513 2.05623 16.1441 2.28038 16.3094 2.44564C16.4747 2.61091 16.6988 2.70376 16.9325 2.70376C17.1663 2.70376 17.3904 2.61091 17.5557 2.44564C17.7209 2.28038 17.8138 2.05623 17.8138 1.82251C17.8138 1.58878 17.7209 1.36464 17.5557 1.19937C17.3904 1.0341 17.1663 0.941257 16.9325 0.941257ZM19.5563 6.72056e-06C19.4951 0.000252948 19.4346 0.0125403 19.3782 0.0361677C19.3218 0.059795 19.2707 0.0942999 19.2276 0.137711C19.1845 0.181123 19.1504 0.232591 19.1273 0.289177C19.1041 0.345764 19.0923 0.406359 19.0925 0.467506C19.0928 0.528653 19.1051 0.589153 19.1287 0.645551C19.1523 0.701949 19.1868 0.753141 19.2302 0.796204C19.2737 0.839268 19.3251 0.873359 19.3817 0.896531C19.4383 0.919703 19.4989 0.931503 19.56 0.931257C19.6835 0.930593 19.8017 0.880901 19.8886 0.793111C19.9754 0.70532 20.0238 0.586623 20.0232 0.463131C20.0225 0.33964 19.9728 0.221471 19.885 0.134618C19.7972 0.0477651 19.6798 -0.000656317 19.5563 6.72056e-06Z" fill="#C9D1E2" stroke="#C9D1E2" stroke-width="2" mask="url(#path-1-inside-1_608_9576)"/>
</svg>
