<svg width="25" height="25" viewBox="0 0 25 25" fill="none" xmlns="http://www.w3.org/2000/svg">
<path fill-rule="evenodd" clip-rule="evenodd" d="M12.184 1.53938C11.3762 1.52492 10.5736 1.67 9.82208 1.96623C9.07046 2.26246 8.38469 2.70415 7.80415 3.26585C7.22354 3.82762 6.75946 4.49839 6.43854 5.23977C6.11838 5.97939 5.94692 6.77485 5.93408 7.58069V15.7154C5.93408 16.1525 5.76039 16.5718 5.45123 16.8809C5.14215 17.1901 4.72285 17.3637 4.28569 17.3637H2.52746C1.85715 17.3637 1.21423 17.0975 0.740231 16.6235C0.266308 16.1495 0 15.5065 0 14.8362V11.3198C0 10.6495 0.266308 10.0065 0.740231 9.53254C1.21423 9.05854 1.85715 8.79231 2.52746 8.79231H4.28569C4.32246 8.79231 4.35915 8.79354 4.39562 8.79592V7.56308C4.41085 6.55292 4.62538 5.55577 5.02669 4.62862C5.428 3.70146 6.00831 2.86262 6.73439 2.16015C7.46046 1.45769 8.318 0.905462 9.25785 0.534923C10.1935 0.166154 11.1923 -0.0152302 12.1978 0.00100052C13.2032 -0.0152302 14.2021 0.166154 15.1377 0.534923C16.0776 0.905462 16.9352 1.45769 17.6612 2.16015C18.3872 2.86262 18.9675 3.70146 19.3688 4.62862C19.7702 5.55577 19.9846 6.55292 19.9999 7.56308L20.0001 7.57469L20 8.79592C20.0365 8.79354 20.0731 8.79231 20.1098 8.79231H21.8682C22.5385 8.79231 23.1813 9.05854 23.6553 9.53254C24.1293 10.0065 24.3956 10.6495 24.3956 11.3198V14.8362C24.3956 15.5065 24.1293 16.1495 23.6553 16.6235C23.1813 17.0975 22.5385 17.3637 21.8682 17.3637H20.1098C20.0731 17.3637 20.0365 17.3625 20 17.3601V17.9132C20 19.0498 19.5485 20.1399 18.7447 20.9436C18.1035 21.5848 17.2801 22.0018 16.3962 22.1443C16.2672 22.6636 15.9992 23.143 15.6145 23.5277C15.0581 24.0841 14.3034 24.3967 13.5165 24.3967H10.8791C10.0922 24.3967 9.33754 24.0841 8.78108 23.5277C8.22469 22.9712 7.91208 22.2165 7.91208 21.4296C7.91208 20.6428 8.22469 19.8881 8.78108 19.3316C9.33754 18.7752 10.0922 18.4626 10.8791 18.4626H13.5165C14.3034 18.4626 15.0581 18.7752 15.6145 19.3316C15.9664 19.6836 16.2208 20.1148 16.3602 20.5834C16.8472 20.4656 17.2968 20.2158 17.6568 19.8558C18.1721 19.3405 18.4615 18.6418 18.4615 17.9132V13.9572V13.9554V12.2006V12.1988V7.58069C18.4486 6.77485 18.2772 5.97939 17.957 5.23977C17.6361 4.49839 17.1721 3.82762 16.5915 3.26585C16.0108 2.70415 15.3251 2.26246 14.5735 1.96623C13.8219 1.67 13.0193 1.52492 12.2115 1.53938L12.1978 1.53969L12.184 1.53938ZM20 15.7154C20 15.7445 20.0115 15.7725 20.0322 15.7931C20.0528 15.8137 20.0808 15.8252 20.1098 15.8252H21.8682C22.1304 15.8252 22.382 15.7211 22.5675 15.5356C22.7529 15.3501 22.8572 15.0985 22.8572 14.8362V11.3198C22.8572 11.0575 22.7529 10.8059 22.5675 10.6204C22.382 10.4349 22.1304 10.3308 21.8682 10.3308H20.1098C20.0807 10.3308 20.0528 10.3423 20.0322 10.3629C20.0115 10.3835 20 10.4115 20 10.4406V15.7154ZM4.39562 10.4406C4.39562 10.4115 4.384 10.3835 4.36338 10.3629C4.34277 10.3423 4.31485 10.3308 4.28569 10.3308H2.52746C2.26515 10.3308 2.01362 10.4349 1.82815 10.6204C1.64262 10.8059 1.53846 11.0575 1.53846 11.3198V14.8362C1.53846 15.0985 1.64262 15.3501 1.82815 15.5356C2.01362 15.7211 2.26515 15.8252 2.52746 15.8252H4.28569C4.31485 15.8252 4.34277 15.8137 4.36338 15.7931C4.384 15.7725 4.39562 15.7445 4.39562 15.7154V10.4406ZM10.8791 20.0011C10.5002 20.0011 10.1368 20.1516 9.86892 20.4195C9.60108 20.6874 9.45054 21.0508 9.45054 21.4296C9.45054 21.8085 9.60108 22.1719 9.86892 22.4398C10.1368 22.7077 10.5002 22.8582 10.8791 22.8582H13.5165C13.8954 22.8582 14.2587 22.7077 14.5266 22.4398C14.7945 22.1719 14.945 21.8085 14.945 21.4296C14.945 21.0508 14.7945 20.6874 14.5266 20.4195C14.2587 20.1516 13.8954 20.0011 13.5165 20.0011H10.8791Z" fill="white"/>
</svg>
