<svg width="17" height="23" viewBox="0 0 17 23" fill="none" xmlns="http://www.w3.org/2000/svg">
<path fill-rule="evenodd" clip-rule="evenodd" d="M8.26923 1.15385C4.33954 1.15385 1.15385 4.33954 1.15385 8.26923C1.15385 10.5877 2.26277 12.6472 3.97908 13.9463C3.99369 13.9562 4.00777 13.9668 4.02131 13.978C5.20685 14.8616 6.677 15.3846 8.26923 15.3846C9.863 15.3846 11.3344 14.8606 12.5205 13.9755C12.5326 13.9656 12.5451 13.9562 12.558 13.9474C14.2752 12.6484 15.3846 10.5884 15.3846 8.26923C15.3846 4.33954 12.199 1.15385 8.26923 1.15385ZM13.4622 14.705C15.3385 13.1891 16.5385 10.8693 16.5385 8.26923C16.5385 3.70223 12.8362 0 8.26923 0C3.70231 0 0 3.70223 0 8.26923C0 10.8698 1.20046 13.19 3.07754 14.7059V22.1154C3.07754 22.3153 3.18108 22.501 3.35115 22.6062C3.52123 22.7112 3.73362 22.7208 3.91246 22.6314L8.26915 20.4527L12.6272 22.6314C12.8061 22.7208 13.0185 22.7112 13.1885 22.6062C13.3586 22.501 13.4622 22.3153 13.4622 22.1154V14.705ZM12.3083 15.4866C11.1138 16.1565 9.73615 16.5385 8.26923 16.5385C6.80285 16.5385 5.42554 16.1568 4.23138 15.4872V21.1818L8.01108 19.2917C8.17354 19.2105 8.36469 19.2105 8.52715 19.2916L12.3083 21.1819V15.4866ZM8.26923 4.23077C6.03885 4.23077 4.23077 6.03885 4.23077 8.26923C4.23077 10.4996 6.03885 12.3077 8.26923 12.3077C10.4996 12.3077 12.3077 10.4996 12.3077 8.26923C12.3077 6.03885 10.4996 4.23077 8.26923 4.23077ZM3.07692 8.26923C3.07692 5.40162 5.40162 3.07692 8.26923 3.07692C11.1368 3.07692 13.4615 5.40162 13.4615 8.26923C13.4615 11.1368 11.1368 13.4615 8.26923 13.4615C5.40162 13.4615 3.07692 11.1368 3.07692 8.26923Z" fill="white"/>
</svg>
