<svg width="22" height="23" viewBox="0 0 22 23" fill="none" xmlns="http://www.w3.org/2000/svg">
<path fill-rule="evenodd" clip-rule="evenodd" d="M1.25923 1.25846C1.32615 1.19108 1.41623 1.15385 1.50931 1.15385H20.1573C20.2505 1.15385 20.3405 1.19108 20.4075 1.25846C20.4745 1.32592 20.5128 1.41823 20.5128 1.51523V8.39569C20.5128 17.8392 12.5635 20.9773 10.937 21.52L10.9308 21.5221C10.8676 21.544 10.7991 21.544 10.7358 21.5221L10.7296 21.52C9.10308 20.9773 1.15385 17.8392 1.15385 8.39569V1.51523C1.15385 1.41823 1.19215 1.32592 1.25923 1.25846ZM1.50931 0C1.10785 0 0.723538 0.160538 0.440769 0.445077C0.158154 0.729538 0 1.11454 0 1.51523V8.39569C0 18.6537 8.66323 22.0464 10.3618 22.6136C10.6675 22.7186 10.9992 22.7186 11.3048 22.6136C13.0035 22.0464 21.6667 18.6537 21.6667 8.39569V1.51523C21.6667 1.11454 21.5085 0.729538 21.2258 0.445077C20.9431 0.160538 20.5588 0 20.1573 0H1.50931ZM16.3793 7.12869C16.5991 6.89792 16.5902 6.53277 16.3594 6.313C16.1287 6.09331 15.7635 6.10223 15.5438 6.33292L9.12392 13.0738L6.12292 9.92269C5.90315 9.69192 5.538 9.683 5.30723 9.90277C5.07654 10.1225 5.06762 10.4877 5.28738 10.7185L8.70608 14.3082C8.815 14.4225 8.966 14.4872 9.12385 14.4872C9.28177 14.4872 9.43277 14.4225 9.54169 14.3082L16.3793 7.12869Z" fill="white"/>
</svg>
