<svg width="25" height="17" viewBox="0 0 25 17" fill="none" xmlns="http://www.w3.org/2000/svg">
<path fill-rule="evenodd" clip-rule="evenodd" d="M11.4226 0.0614867C11.7751 -0.0412826 12.1528 -0.0145899 12.4874 0.136795L15.6601 1.57241H17.2357L19.4742 0.453178C19.8349 0.272794 20.2521 0.241256 20.6358 0.365487C21.0196 0.489641 21.3392 0.759563 21.5259 1.1171L23.8907 5.64564C23.9852 5.82672 24.0427 6.02487 24.0599 6.22849C24.077 6.43202 24.0535 6.63702 23.9907 6.83141C23.9277 7.02579 23.8267 7.20572 23.6936 7.36064C23.5604 7.51556 23.3977 7.64241 23.2149 7.73379L20.9777 8.85241L19.521 10.5566L15.9615 14.116C15.7737 14.3039 15.5404 14.4399 15.2843 14.5108C15.0283 14.5817 14.7583 14.5851 14.5005 14.5207L8.92774 13.1275C8.71867 13.0753 8.5229 12.9796 8.3532 12.8469L3.15813 8.78456L0.850436 7.63072C0.667667 7.53933 0.504974 7.41249 0.37182 7.25756C0.23859 7.10264 0.13759 6.92272 0.0747436 6.72833C0.0118205 6.53395 -0.0117182 6.32903 0.00543569 6.12541C0.0225895 5.92179 0.0801283 5.72372 0.174744 5.54256L2.53944 1.01403C2.72613 0.656487 3.04574 0.386564 3.42951 0.26241C3.81328 0.138256 4.23044 0.169718 4.5912 0.350102L6.74267 1.42579L11.4226 0.0614867ZM5.60382 2.57649L3.90313 1.7261L1.53844 6.25472L3.23913 7.10503L5.60382 2.57649ZM4.54936 7.91949L7.1682 2.90426L11.8532 1.53841L12.592 1.87272C12.5302 1.91826 12.4718 1.96849 12.4173 2.02302L8.65436 5.78595C8.49851 5.94179 8.37797 6.12933 8.3009 6.33579C8.22382 6.54233 8.19197 6.76295 8.20767 6.98279C8.22328 7.20272 8.28597 7.41664 8.39144 7.61018C8.49697 7.80372 8.64282 7.97226 8.81913 8.10456L9.34036 8.49549C10.0061 8.99479 10.8159 9.26472 11.6481 9.26472C12.4803 9.26472 13.29 8.99479 13.9557 8.49549L14.732 7.91326L17.7753 10.1266L14.8737 13.0282L9.3009 11.6349L4.54936 7.91949ZM18.833 8.99356L19.5717 8.12941L16.9512 3.11087H15.5107C15.4994 3.1111 15.4881 3.1111 15.4768 3.11087H13.5051L9.7422 6.8738L10.2634 7.26472C10.6629 7.56426 11.1487 7.72626 11.6481 7.72626C12.1474 7.72626 12.6332 7.56426 13.0327 7.26472L14.718 6.00072L18.833 8.99356ZM18.4615 2.67949L20.8262 7.2081L22.5269 6.35772L20.1622 1.82918L18.4615 2.67949ZM4.52905 12.5233C4.80774 12.2027 5.29359 12.1687 5.6142 12.4474L7.78274 14.3324L10.6807 15.0569C11.0929 15.1599 11.3435 15.5776 11.2405 15.9897C11.1374 16.4019 10.7198 16.6525 10.3077 16.5494L7.40967 15.8249C7.17444 15.7661 6.95644 15.6526 6.77344 15.4935L4.60497 13.6086C4.28436 13.3299 4.25036 12.844 4.52905 12.5233Z" fill="white"/>
</svg>
