<?xml version="1.0" encoding="utf-8"?><svg xmlns="http://www.w3.org/2000/svg" xmlns:xlink="http://www.w3.org/1999/xlink"><symbol viewBox="0 0 13 17" id="arrow-down" xmlns="http://www.w3.org/2000/svg"><path d="m.375 9.2 6 6.8m0 0 6-6.8m-6 6.8V0"/></symbol><symbol viewBox="0 0 24 23" id="basket" xmlns="http://www.w3.org/2000/svg"><path d="M23.5 6.406V19a3.5 3.5 0 0 1-3.5 3.5H4A3.5 3.5 0 0 1 .5 19V6.406h23Z"/><path d="M5.64 8.5V5.297S5.01 0 12 0c6.989 0 6.36 5.297 6.36 5.297V8.5m-12.735.043C6.409 8.543 7 9.14 7 9.823s-.591 1.281-1.375 1.281-1.375-.598-1.375-1.281c0-.683.591-1.28 1.375-1.28Zm12.75 0c.784 0 1.375.597 1.375 1.28s-.591 1.281-1.375 1.281S17 10.506 17 9.823c0-.683.591-1.28 1.375-1.28Z"/></symbol><symbol viewBox="0 0 20 16" id="bill" xmlns="http://www.w3.org/2000/svg"><path fill-rule="evenodd" clip-rule="evenodd" d="M1.538 0C1.13 0 .74.153.451.426A1.415 1.415 0 0 0 0 1.455v13.818a.72.72 0 0 0 .365.618c.227.133.51.145.748.032l2.733-1.292 2.733 1.292a.809.809 0 0 0 .688 0L10 14.631l2.733 1.292a.809.809 0 0 0 .688 0l2.733-1.292 2.733 1.292c.238.113.521.1.748-.032a.72.72 0 0 0 .365-.618V1.455c0-.386-.162-.756-.45-1.029A1.585 1.585 0 0 0 18.461 0H1.538Zm0 1.455h16.924v12.641l-1.964-.928a.809.809 0 0 0-.688 0l-2.733 1.292-2.733-1.292a.809.809 0 0 0-.688 0L6.923 14.46 4.19 13.168a.809.809 0 0 0-.688 0l-1.964.928V1.455Zm2.693 4.363c0-.401.344-.727.769-.727h10c.425 0 .77.326.77.727 0 .402-.345.727-.77.727H5c-.425 0-.77-.325-.77-.727Zm0 2.91C4.23 8.325 4.575 8 5 8h10c.425 0 .77.326.77.727 0 .402-.345.728-.77.728H5c-.425 0-.77-.326-.77-.728Z"/></symbol><symbol viewBox="0 0 20 14" id="burger" xmlns="http://www.w3.org/2000/svg"><path d="M.5 12.69h8.38M.5 6.595h12.952M.5.5h18.286"/></symbol><symbol viewBox="0 0 21 15" id="card" xmlns="http://www.w3.org/2000/svg"><path fill-rule="evenodd" clip-rule="evenodd" d="M1.5 0A1.5 1.5 0 0 0 0 1.5v3.051a.753.753 0 0 0 0 .058V13.5A1.5 1.5 0 0 0 1.5 15h18a1.5 1.5 0 0 0 1.5-1.5v-12A1.5 1.5 0 0 0 19.5 0h-18Zm0 5.33v8.17h18V5.33h-18Zm18-1.5V1.5h-18v2.33h18Zm-5.25 6.67a.75.75 0 0 0 0 1.5h3a.75.75 0 0 0 0-1.5h-3ZM9 11.25a.75.75 0 0 1 .75-.75h1.5a.75.75 0 0 1 0 1.5h-1.5a.75.75 0 0 1-.75-.75Z"/></symbol><symbol viewBox="0 0 14 14" id="chart" xmlns="http://www.w3.org/2000/svg"><path fill-rule="evenodd" clip-rule="evenodd" d="M7 0C3.134 0 0 2.902 0 6.481c0 2.04 1.018 3.86 2.609 5.048V14l2.383-1.308c.636.176 1.31.271 2.008.271 3.866 0 7-2.902 7-6.482S10.866 0 7 0Zm.696 8.728-1.783-1.9-3.478 1.9L6.26 4.667l1.826 1.901 3.435-1.901-3.826 4.061Z"/></symbol><symbol viewBox="0 0 11 8" id="check" xmlns="http://www.w3.org/2000/svg"><path d="m.5 2.5 3.998 3.998L10.496.5"/></symbol><symbol viewBox="0 0 11 7" id="chevron-down" xmlns="http://www.w3.org/2000/svg"><path d="m.354.354 5 5 5-5"/></symbol><symbol viewBox="0 0 10 15" id="chevron-left" xmlns="http://www.w3.org/2000/svg"><path d="m8.76.376-8 7 8 7"/></symbol><symbol viewBox="0 0 10 15" id="chevron-right" xmlns="http://www.w3.org/2000/svg"><path d="m.33 14.376 8-7-8-7"/></symbol><symbol viewBox="0 0 24 24" id="factura" xmlns="http://www.w3.org/2000/svg"><g clip-path="url(#aka)"><path d="M17.301 2.8h-6.8c-.2 0-.3-.1-.3-.3 0-.2.1-.3.3-.3h6.8c.2 0 .3.1.3.3.1.2-.1.3-.3.3Zm0 1.9h-6.8c-.2 0-.3-.1-.3-.3 0-.2.1-.3.3-.3h6.8c.2 0 .3.1.3.3.1.1-.1.3-.3.3Zm0 1.8h-6.8c-.2 0-.3-.1-.3-.3 0-.2.1-.3.3-.3h6.8c.2 0 .3.1.3.3.1.2-.1.3-.3.3Zm0 1.9h-6.8c-.2 0-.3-.1-.3-.3 0-.2.1-.3.3-.3h6.8c.2 0 .3.1.3.3.1.1-.1.3-.3.3Z"/><path d="M22.7 4.1c0-.5-.2-.9-.5-1.3-.8-.7-1.5-1.5-2.2-2.2-.5-.4-1-.6-1.5-.6H9.9C8.7 0 8.1.6 8.1 1.7v6.8c0 .2-.1.3-.2.5-1.3 1-2.7 2-4 3-.7.5-1.1 1.2-1.2 2v6.8h-.3c-.6 0-1 .4-1 1v1.4c0 .6.4 1 1 1h7.2c.6 0 1-.4 1-.9v-1.4c0-.6-.4-.9-1-.9h-.4v-.6c.5-.1.9-.3 1.3-.7.1-.1.3-.2.5-.2h10.1c1.1 0 1.8-.6 1.8-1.8-.2-1.8-.2-13-.2-13.6Zm-3.2-3 2.1 2.1h-2.1V1.1ZM9.3 21.3c.5 0 .5.1.5.5v1.1c0 .3-.1.4-.4.4H2.3c-.2.1-.3 0-.3-.3v-1.1c0-.4.1-.5.5-.5h3.4c1.2-.1 2.3-.1 3.4-.1Zm11.6-2.6h-10c0-.2.1-.4.1-.7 0-.2 0-.4-.3-.4-.2 0-.3.2-.3.4-.1.9-.7 1.5-1.6 1.6-.3 0-.4.2-.4.4v.8H3.3v-6.2c0-.9.3-1.6 1.1-2.2.3-.2.5-.4.8-.6 1-.7 1.9-1.4 2.9-2.2v2.3c0 .2-.1.3-.2.4-.7.5-1.5 1.1-2.2 1.6-.2.1-.2.3-.1.5s.3.2.5 0c.1 0 .1-.1.2-.1 1.1-.8 2.3-1.7 3.4-2.5l.1-.1c.3-.2.6-.2.8.1.2.3.1.5-.2.8-.5.4-1.1.8-1.6 1.2-.9.7-1.1 1.4-.8 2.5.2.6 0 1.2-.4 1.6-.3.3-.6.5-.9.8-.2.1-.2.3-.1.5.2.2.3.1.5 0 .3-.3.6-.5.9-.8.7-.6.8-1.4.6-2.2-.2-.8-.1-1.3.6-1.8.6-.4 1.1-.9 1.7-1.3.4-.3.5-.6.4-1.1-.1-.8-1-1.2-1.8-.8-.3.2-.5.4-.8.6V1.7c0-.6.4-1 1-1h8.8c.2 0 .3 0 .3.3v2.5c0 .4.1.4.4.4h2.7v13.7c.1.7-.2 1.1-1 1.1Z"/></g><defs><clipPath id="aka"><path d="M0 0h24v24H0z"/></clipPath></defs></symbol><symbol viewBox="0 0 24 24" id="fb" xmlns="http://www.w3.org/2000/svg"><path d="M13.397 20.997v-8.196h2.765l.411-3.209h-3.176V7.548c0-.926.258-1.56 1.587-1.56h1.684v-2.86A22.108 22.108 0 0 0 14.201 3c-2.444 0-4.122 1.492-4.122 4.231v2.355H7.332v3.21h2.753v8.201h3.312Z"/></symbol><symbol viewBox="0 0 22 20" id="heart" xmlns="http://www.w3.org/2000/svg"><path d="M16.27.5c2.831 0 5.23 2.602 5.23 5.92 0 1.502-.503 2.928-1.408 4.027l-.032.038-.02.037-.004.003-.01.011-.198.198-.09.088-.006.005L11 19.483l-8.446-8.359-.033-.059-.057-.051-.228-.218C1.132 9.674.5 8.107.5 6.42.5 3.1 2.899.5 5.73.5c1.066 0 2.074.494 2.94 1.154.863.658 1.54 1.447 1.934 1.96L11 4.13l.396-.517c.394-.512 1.07-1.301 1.933-1.959C14.195.994 15.204.5 16.27.5Z"/></symbol><symbol viewBox="0 0 24 24" id="instagram" xmlns="http://www.w3.org/2000/svg"><path d="M11.999 7.377a4.624 4.624 0 1 0 0 9.248 4.624 4.624 0 0 0 0-9.248Zm0 7.627a3.004 3.004 0 1 1 0-6.008 3.004 3.004 0 0 1 0 6.008Zm4.807-6.719a1.078 1.078 0 1 0 0-2.156 1.078 1.078 0 0 0 0 2.156Z"/><path d="M20.533 6.11A4.605 4.605 0 0 0 17.9 3.48a6.607 6.607 0 0 0-2.186-.42c-.963-.042-1.268-.054-3.71-.054s-2.755 0-3.71.054a6.554 6.554 0 0 0-2.184.42 4.6 4.6 0 0 0-2.633 2.63 6.585 6.585 0 0 0-.419 2.186c-.043.962-.056 1.267-.056 3.71 0 2.442 0 2.753.056 3.71.015.748.156 1.486.419 2.187a4.61 4.61 0 0 0 2.634 2.632 6.583 6.583 0 0 0 2.185.45c.963.042 1.268.055 3.71.055s2.755 0 3.71-.055a6.616 6.616 0 0 0 2.186-.42 4.613 4.613 0 0 0 2.633-2.632c.263-.7.404-1.438.419-2.186.043-.962.056-1.267.056-3.71s0-2.753-.056-3.71a6.583 6.583 0 0 0-.421-2.217Zm-1.218 9.533a5.046 5.046 0 0 1-.311 1.688 2.987 2.987 0 0 1-1.712 1.71c-.535.2-1.1.305-1.67.312-.95.044-1.218.055-3.654.055-2.438 0-2.687 0-3.655-.055a4.961 4.961 0 0 1-1.67-.311 2.984 2.984 0 0 1-1.718-1.711 5.08 5.08 0 0 1-.311-1.67c-.043-.95-.053-1.217-.053-3.653 0-2.437 0-2.686.053-3.655a5.038 5.038 0 0 1 .311-1.687c.305-.79.93-1.41 1.719-1.712a5.01 5.01 0 0 1 1.669-.311c.95-.043 1.218-.055 3.655-.055s2.687 0 3.654.055a4.96 4.96 0 0 1 1.67.31 2.99 2.99 0 0 1 1.712 1.713 5.06 5.06 0 0 1 .311 1.669c.043.95.054 1.218.054 3.655 0 2.436 0 2.698-.043 3.654h-.011v-.001Z"/></symbol><symbol viewBox="0 0 21 15" id="metro" xmlns="http://www.w3.org/2000/svg"><g clip-path="url(#aoa)"><path d="M19.555 12.905 14.65 0 10.5 7.544 6.367 0 1.445 12.905H0v1.955h7.426v-1.955h-1.11l1.076-3.213L10.5 15l3.108-5.309 1.075 3.213h-1.109v1.956H21v-1.955h-1.445Z"/></g><defs><clipPath id="aoa"><path d="M0 0h21v15H0z"/></clipPath></defs></symbol><symbol viewBox="0 0 18 16" id="online" xmlns="http://www.w3.org/2000/svg"><path fill-rule="evenodd" clip-rule="evenodd" d="M2.077 0h13.846C17.07 0 18 .94 18 2.1v9.8c0 1.16-.93 2.1-2.077 2.1H2.077A2.089 2.089 0 0 1 0 11.9V2.1C0 .94.93 0 2.077 0ZM6.6 15h4.8c.16 0 .312.053.424.146A.462.462 0 0 1 12 15.5c0 .133-.063.26-.176.354A.666.666 0 0 1 11.4 16H6.6a.666.666 0 0 1-.424-.146A.462.462 0 0 1 6 15.5c0-.133.063-.26.176-.354A.666.666 0 0 1 6.6 15Zm8.9-13.5h-13c-.5 0-1 .5-1 1v9c0 .5.5 1 1 1h13c.5 0 1-.5 1-1v-9c0-.5-.5-1-1-1ZM6.833 3a.5.5 0 0 1 .5-.5h2.5a2.58 2.58 0 0 1 1.901.854c.495.54.766 1.264.766 2.01 0 .776-.293 1.358-.766 1.874-.531.58-1.238.762-1.9.762h-2v1H10a.5.5 0 0 1 0 1H7.833v1a.5.5 0 1 1-1 0v-1H6a.5.5 0 0 1 0-1h.833V8H6a.5.5 0 0 1 0-1h.833V3Zm1 4h2c.486 0 .882-.13 1.164-.438.34-.37.503-.721.503-1.198 0-.508-.185-.987-.503-1.334a1.58 1.58 0 0 0-1.164-.53h-2V7Z"/></symbol><symbol viewBox="0 0 52 59" id="play" xmlns="http://www.w3.org/2000/svg"><path d="M49.5 25.657c2.667 1.54 2.667 5.388 0 6.928L6 57.699c-2.667 1.54-6-.384-6-3.464V4.005C0 .928 3.333-.997 6 .543l43.5 25.114Z"/></symbol><symbol viewBox="0 0 9 9" id="plus" xmlns="http://www.w3.org/2000/svg"><path d="M4.31.5v7.619M.5 4.31h7.619"/></symbol><symbol viewBox="0 0 24 24" id="profile" xmlns="http://www.w3.org/2000/svg"><path d="m15.054 18.715 3.675 1.837c.037.018.074.038.111.06v.65a7.81 7.81 0 0 1-.3.218c-.319.222-.792.521-1.403.821A11.657 11.657 0 0 1 12 23.5a11.61 11.61 0 0 1-5.16-1.224 11.056 11.056 0 0 1-1.421-.839 8.025 8.025 0 0 1-.31-.227v-.646l.066-.037 3.433-1.872c.472-.258.765-.752.765-1.289v-1.424l-.101-.134a7.658 7.658 0 0 1-1.257-2.595l-.04-.159-.128-.104a1.079 1.079 0 0 1-.398-.838v-1.539c0-.253.093-.503.264-.702l.12-.14V7.493l-.002-.025c-.018-.184-.083-1.277.696-2.165.669-.764 1.797-1.205 3.473-1.205s2.804.441 3.473 1.205c.78.889.714 1.98.696 2.166l-.003.025V9.73l.121.14c.17.199.264.449.264.703v1.539c0 .422-.24.796-.62.976l-.189.09-.068.198a8.347 8.347 0 0 1-1.071 2.098 6.661 6.661 0 0 1-.249.329l-.111.138v1.46c0 .558.312 1.063.81 1.313Z"/><path d="M12 23.5c6.351 0 11.5-5.149 11.5-11.5S18.351.5 12 .5.5 5.649.5 12 5.649 23.5 12 23.5Z"/></symbol><symbol viewBox="0 0 16 16" id="qr" xmlns="http://www.w3.org/2000/svg"><path d="M.889 0A.889.889 0 0 0 0 .889v3.556c0 .49.398.888.889.888h3.556c.49 0 .888-.398.888-.888V.889A.889.889 0 0 0 4.445 0H.889ZM7.11 0v1.778h1.78V0H7.11Zm4.444 0a.889.889 0 0 0-.888.889v3.556c0 .49.398.888.888.888h3.556a.889.889 0 0 0 .889-.888V.889A.889.889 0 0 0 15.111 0h-3.556ZM1.778 1.778h1.777v1.777H1.778V1.778Zm10.667 0h1.777v1.777h-1.777V1.778ZM7.11 3.555v1.778h1.78V3.555H7.11ZM0 7.111V8.89h1.778V7.11H0Zm3.555 0V8.89h1.778V7.11H3.555Zm3.556 0V8.89H8.89V7.11H7.11ZM8.89 8.89v1.778h1.778V8.889H8.889Zm1.778 0h1.778V7.11h-1.778v1.78Zm1.778 0v1.778h1.777V8.889h-1.777Zm1.777 0H16V7.11h-1.778v1.78Zm0 1.778v1.778H16v-1.778h-1.778Zm0 1.778h-1.777v1.777h1.777v-1.777Zm0 1.777V16H16v-1.778h-1.778Zm-1.777 0h-1.778V16h1.778v-1.778Zm-1.778 0v-1.777H8.889v1.777h1.778Zm-1.778 0H7.11V16h1.78v-1.778Zm0-1.777v-1.778H7.11v1.778h1.78Zm1.778 0h1.778v-1.778h-1.778v1.778ZM.889 10.667a.889.889 0 0 0-.889.888v3.556c0 .491.398.889.889.889h3.556c.49 0 .888-.398.888-.889v-3.556a.889.889 0 0 0-.888-.888H.889Zm.889 1.778h1.777v1.777H1.778v-1.777Z"/></symbol><symbol viewBox="0 0 21 21" id="search" xmlns="http://www.w3.org/2000/svg"><circle cx="8.205" cy="8.205" r="7.705"/><path d="M13.333 13.333 20 20"/></symbol><symbol viewBox="0 0 30 30" id="service-1" xmlns="http://www.w3.org/2000/svg"><path fill-rule="evenodd" clip-rule="evenodd" d="M15 13.9c-.61 0-1.1.49-1.1 1.1 0 .61.49 1.1 1.1 1.1.61 0 1.1-.49 1.1-1.1 0-.61-.49-1.1-1.1-1.1ZM15 5C9.48 5 5 9.48 5 15s4.48 10 10 10 10-4.48 10-10S20.52 5 15 5Zm2.19 12.19L9 21l3.81-8.19L21 9l-3.81 8.19Z"/></symbol><symbol viewBox="0 0 30 30" id="service-2" xmlns="http://www.w3.org/2000/svg"><path fill-rule="evenodd" clip-rule="evenodd" d="m14.557 20.698 4.15 2.51c.76.46 1.69-.22 1.49-1.08l-1.1-4.72 3.67-3.18c.67-.58.31-1.68-.57-1.75l-4.83-.41-1.89-4.46c-.34-.81-1.5-.81-1.84 0l-1.89 4.45-4.83.41c-.88.07-1.24 1.17-.57 1.75l3.67 3.18-1.1 4.72c-.2.86.73 1.54 1.49 1.08l4.15-2.5Z"/></symbol><symbol viewBox="0 0 30 30" id="service-3" xmlns="http://www.w3.org/2000/svg"><path fill-rule="evenodd" clip-rule="evenodd" d="M15 5C9.48 5 5 9.48 5 15s4.48 10 10 10 10-4.48 10-10S20.52 5 15 5Zm-1 17.93c-3.95-.49-7-3.85-7-7.93 0-.62.08-1.21.21-1.79L12 18v1c0 1.1.9 2 2 2v1.93Zm6.9-2.54c-.26-.81-1-1.39-1.9-1.39h-1v-3c0-.55-.45-1-1-1h-6v-2h2c.55 0 1-.45 1-1v-2h2c1.1 0 2-.9 2-2v-.41c2.93 1.19 5 4.06 5 7.41 0 2.08-.8 3.97-2.1 5.39Z"/></symbol><symbol viewBox="0 0 30 30" id="service-4" xmlns="http://www.w3.org/2000/svg"><path fill-rule="evenodd" clip-rule="evenodd" d="m19.433 9.85 1.44 1.44-4.88 4.88-3.29-3.29a.996.996 0 0 0-1.41 0l-6 6.01a.996.996 0 1 0 1.41 1.41l5.29-5.3 3.29 3.29c.39.39 1.02.39 1.41 0l5.59-5.58 1.44 1.44a.5.5 0 0 0 .85-.35V9.5a.48.48 0 0 0-.49-.5h-4.29a.5.5 0 0 0-.36.85Z"/></symbol><symbol viewBox="0 0 15 14" id="star" xmlns="http://www.w3.org/2000/svg"><path fill-rule="evenodd" clip-rule="evenodd" d="m7.5 11.725 3.637 2.148c.666.394 1.482-.188 1.306-.924l-.964-4.04 3.217-2.723c.587-.496.272-1.438-.5-1.497l-4.233-.351L8.306.52c-.298-.693-1.314-.693-1.612 0L5.037 4.329.804 4.68c-.772.06-1.087 1.001-.5 1.498L3.521 8.9l-.964 4.04c-.176.736.64 1.318 1.306.925l3.637-2.14Z"/></symbol><symbol viewBox="0 0 16 16" id="telegram" xmlns="http://www.w3.org/2000/svg"><path d="m14.629 3.698-2.012 9.618c-.152.679-.548.848-1.11.528l-3.066-2.29-1.48 1.442c-.163.166-.3.305-.616.305l.22-3.165 5.683-5.204c.247-.223-.054-.347-.384-.123L4.839 9.29l-3.024-.959c-.658-.208-.67-.667.137-.986L13.78 2.727c.548-.208 1.027.124.849.971Z"/></symbol><symbol viewBox="0 0 14 13" id="track" xmlns="http://www.w3.org/2000/svg"><path fill-rule="evenodd" clip-rule="evenodd" d="m13.733 6.197-1.357-2.198a1.927 1.927 0 0 0-1.636-.904H9.55V1.857C9.55.83 8.697 0 7.64 0H.637A.63.63 0 0 0 0 .619c0 .34.286.62.637.62H3.82a.63.63 0 0 1 .637.618.63.63 0 0 1-.637.62H.637A.63.63 0 0 0 0 3.094c0 .34.286.62.637.62h3.82a.63.63 0 0 1 .636.618.63.63 0 0 1-.636.62H1.273a.63.63 0 0 0-.636.618c0 .34.286.62.636.62H7.64a.63.63 0 0 1 .636.619v2.476a.63.63 0 0 1-.636.619H5.513a2.237 2.237 0 0 0-2.011-1.238c-.885 0-1.656.507-2.012 1.238H.637a.63.63 0 0 0-.637.619c0 .34.286.619.637.619h.662C1.452 12.195 2.38 13 3.502 13c1.12 0 2.05-.805 2.202-1.857h2.592C8.448 12.195 9.378 13 10.498 13c1.12 0 2.114-.86 2.216-1.962.745-.254 1.286-.941 1.286-1.752V7.15c0-.334-.095-.669-.274-.953h.007ZM3.502 11.762a.94.94 0 0 1-.955-.929.94.94 0 0 1 .955-.928.94.94 0 0 1 .955.928.94.94 0 0 1-.955.929Zm7.003 0a.94.94 0 0 1-.955-.929.94.94 0 0 1 .955-.928.94.94 0 0 1 .955.928.94.94 0 0 1-.955.929Zm2.228-2.476a.61.61 0 0 1-.274.507 2.23 2.23 0 0 0-1.636-1.108 2.22 2.22 0 0 0-1.273.186v-.83a.63.63 0 0 1 .636-.619h1.91a.63.63 0 0 1 .637.62v1.244Z"/></symbol><symbol viewBox="0 0 16 21" id="trash" xmlns="http://www.w3.org/2000/svg"><path d="M2.167 20 .5 6.154h15L13.833 20H2.167ZM15.5 3.846h-4.342M.5 3.846h4.342m0 0 .067-.08a4 4 0 0 1 6.183 0l.066.08m-6.316 0h6.316M8 18.462V7.692m3 10.77.375-5.385.375-5.385M5 18.462l-.75-10.77"/></symbol><symbol viewBox="0 0 16 16" id="viber" xmlns="http://www.w3.org/2000/svg"><path d="M8 1.335c-1.071.013-3.374.19-4.662 1.37-.958.948-1.292 2.35-1.331 4.084-.033 1.728-.072 4.973 3.058 5.856v1.346s-.02.538.337.648c.438.14.688-.275 1.105-.72l.778-.879c2.142.178 3.782-.232 3.97-.293.435-.139 2.883-.451 3.283-3.696.41-3.351-.2-5.463-1.301-6.418h-.007c-.332-.306-1.668-1.279-4.652-1.29 0 0-.222-.014-.578-.008Zm.037.942a7.02 7.02 0 0 1 .488.011c2.527.007 3.732.767 4.017 1.023.927.794 1.405 2.697 1.055 5.495-.332 2.713-2.317 2.885-2.685 3.002-.156.05-1.6.406-3.42.289 0 0-1.356 1.634-1.78 2.055-.067.074-.146.095-.196.085-.071-.018-.093-.107-.089-.229l.013-2.233c-2.655-.733-2.498-3.5-2.47-4.946.033-1.446.304-2.628 1.113-3.43 1.088-.982 3.043-1.115 3.953-1.122Zm.2 1.446a.166.166 0 1 0 0 .332 3.136 3.136 0 0 1 2.242.883c.606.588.9 1.378.912 2.411 0 .092.074.167.167.167V7.51a.167.167 0 0 0 .168-.165 3.588 3.588 0 0 0-1.009-2.646c-.66-.645-1.496-.977-2.48-.977Zm-2.198.382a.523.523 0 0 0-.342.067H5.69a2.61 2.61 0 0 0-.637.523 1.003 1.003 0 0 0-.256.525.71.71 0 0 0 .026.302l.01.006c.172.504.396.988.67 1.444a8.48 8.48 0 0 0 1.29 1.762l.015.022.024.017.015.018.017.015c.532.505 1.127.94 1.769 1.295.734.4 1.18.588 1.447.667v.004c.078.024.15.034.221.034.228-.016.444-.109.613-.262a2.53 2.53 0 0 0 .517-.638v-.004c.128-.241.085-.469-.1-.623-.37-.323-.77-.61-1.195-.857-.285-.155-.574-.061-.69.095l-.25.315c-.129.156-.361.134-.361.134l-.007.004C7.093 8.527 6.63 6.772 6.63 6.772s-.022-.239.139-.36l.312-.252c.15-.122.254-.41.094-.695a7.498 7.498 0 0 0-.856-1.194.475.475 0 0 0-.28-.167Zm2.486.495c-.221 0-.221.334.003.334A2.098 2.098 0 0 1 10 5.572 1.94 1.94 0 0 1 10.5 7a.168.168 0 0 0 .167.165l.007.009a.169.169 0 0 0 .167-.167c.015-.662-.191-1.218-.595-1.663C9.84 4.9 9.273 4.65 8.549 4.6h-.024Zm.274.898c-.228-.006-.236.335-.01.341.55.029.816.306.851.877a.166.166 0 0 0 .165.163h.007a.168.168 0 0 0 .16-.178c-.039-.744-.445-1.164-1.166-1.202H8.8Z"/></symbol><symbol viewBox="0 0 24 24" id="vk" xmlns="http://www.w3.org/2000/svg"><path d="M21.579 6.855c.14-.465 0-.806-.662-.806h-2.193c-.558 0-.813.295-.953.619 0 0-1.115 2.719-2.695 4.482-.51.513-.743.675-1.021.675-.139 0-.341-.162-.341-.627V6.855c0-.558-.161-.806-.626-.806H9.642c-.348 0-.558.258-.558.504 0 .528.79.65.871 2.138v3.228c0 .707-.127.836-.407.836-.743 0-2.551-2.73-3.624-5.853-.209-.607-.42-.852-.98-.852H2.752c-.627 0-.752.295-.752.619 0 .582.743 3.462 3.461 7.27 1.812 2.602 4.363 4.012 6.687 4.012 1.393 0 1.565-.313 1.565-.853v-1.966c0-.626.133-.752.574-.752.324 0 .882.164 2.183 1.417 1.486 1.486 1.732 2.153 2.567 2.153h2.192c.626 0 .939-.313.759-.931-.197-.615-.907-1.51-1.849-2.57-.512-.603-1.277-1.253-1.51-1.578-.325-.42-.231-.604 0-.976.001 0 2.672-3.761 2.95-5.04Z"/></symbol><symbol viewBox="0 0 18 16" id="wallet" xmlns="http://www.w3.org/2000/svg"><path fill-rule="evenodd" clip-rule="evenodd" d="M12.743.045a2.663 2.663 0 0 1 2.18.56 2.641 2.641 0 0 1 .962 2.034v.6A2.564 2.564 0 0 1 18 5.76v7.68A2.566 2.566 0 0 1 15.429 16H2.57A2.566 2.566 0 0 1 0 13.44v-9c0-.615.215-1.21.608-1.684.394-.474.94-.796 1.547-.911l.013-.002L12.743.045ZM14.6 2.64v.559H2.571c-.217 0-.428.027-.629.077a1.37 1.37 0 0 1 .449-.173l10.574-1.797.012-.002a1.372 1.372 0 0 1 1.492.757c.086.18.13.379.13.579ZM1.286 13.44V5.758c0-.706.576-1.279 1.285-1.279H15.43c.71 0 1.285.573 1.285 1.28v7.68c0 .708-.575 1.28-1.285 1.28H2.57c-.71 0-1.285-.572-1.285-1.28ZM13.5 10.88a1.29 1.29 0 0 1-1.188-.791 1.274 1.274 0 0 1 .279-1.395 1.288 1.288 0 0 1 2.195.905 1.287 1.287 0 0 1-1.286 1.28Z"/></symbol><symbol viewBox="0 0 16 16" id="whatsapp" xmlns="http://www.w3.org/2000/svg"><path fill-rule="evenodd" clip-rule="evenodd" d="M12.269 3.755A5.947 5.947 0 0 0 8.035 2 5.994 5.994 0 0 0 2.05 7.985a5.98 5.98 0 0 0 .799 2.992L2 14.077l3.173-.832c.877.477 1.86.728 2.86.728h.002a5.993 5.993 0 0 0 5.533-8.276 5.953 5.953 0 0 0-1.3-1.942Zm-4.234 9.208h-.002c-.89 0-1.765-.24-2.532-.694l-.181-.108-1.883.494.502-1.835-.118-.188a4.965 4.965 0 0 1-.76-2.647 4.982 4.982 0 0 1 6.88-4.597c.604.25 1.152.618 1.613 1.081a4.946 4.946 0 0 1 1.455 3.52 4.982 4.982 0 0 1-4.974 4.974Zm2.729-3.726c-.15-.075-.885-.436-1.022-.486-.137-.05-.236-.075-.336.074-.1.15-.387.486-.474.586-.087.1-.175.112-.324.038-.15-.075-.631-.233-1.203-.742a4.505 4.505 0 0 1-.832-1.036c-.087-.15-.009-.231.066-.306.068-.066.15-.174.224-.262.075-.087.1-.149.15-.249.05-.1.025-.187-.013-.262-.037-.075-.337-.811-.461-1.11-.121-.29-.244-.252-.336-.256a6.418 6.418 0 0 0-.286-.005.55.55 0 0 0-.4.186c-.137.15-.523.512-.523 1.248s.536 1.447.61 1.547c.075.1 1.055 1.61 2.555 2.258.358.154.636.246.853.315.358.114.684.098.942.06.287-.043.885-.362 1.01-.711.124-.35.124-.649.087-.711-.038-.063-.138-.101-.287-.176Z"/></symbol></svg>