<svg width="21" height="23" viewBox="0 0 21 23" fill="none" xmlns="http://www.w3.org/2000/svg">
<path d="M7.746 11.3012L0.873051 13.1053C0.653248 13.163 0.5 13.3617 0.5 13.589V21.7033C0.5 21.9795 0.723858 22.2033 1 22.2033H12.381C12.6571 22.2033 12.881 21.9795 12.881 21.7033V19.2033C12.881 18.9271 13.1048 18.7033 13.381 18.7033H15.2381C15.5142 18.7033 15.7381 18.9271 15.7381 19.2033V21.7033C15.7381 21.9795 15.962 22.2033 16.2381 22.2033H20C20.2761 22.2033 20.5 21.9795 20.5 21.7033V1.00123C20.5 0.632243 20.114 0.390367 19.7819 0.551284L8.401 6.06663C8.22856 6.15019 8.11905 6.32496 8.11905 6.51658V10.8176C8.11905 11.0448 7.9658 11.2435 7.746 11.3012Z" stroke="#79859E"/>
<rect x="3.75" y="18.4533" width="4.5" height="0.5" stroke="#79859E" stroke-width="0.5"/>
<rect x="3.75" y="16.4533" width="4.5" height="0.5" stroke="#79859E" stroke-width="0.5"/>
<rect x="3.75" y="14.4533" width="4.5" height="0.5" stroke="#79859E" stroke-width="0.5"/>
<rect x="12.25" y="11.4533" width="4.5" height="0.5" stroke="#79859E" stroke-width="0.5"/>
<rect x="12.25" y="15.4533" width="4.5" height="0.5" stroke="#79859E" stroke-width="0.5"/>
<rect x="12.25" y="9.45331" width="4.5" height="0.5" stroke="#79859E" stroke-width="0.5"/>
<rect x="12.25" y="13.4533" width="4.5" height="0.5" stroke="#79859E" stroke-width="0.5"/>
<rect x="12.25" y="7.45331" width="4.5" height="0.5" stroke="#79859E" stroke-width="0.5"/>
</svg>
