<svg width="24" height="23" viewBox="0 0 24 23" fill="none" xmlns="http://www.w3.org/2000/svg">
<path d="M23.5 6.40579V18.9995C23.5 20.9325 21.933 22.4995 20 22.4995H4C2.067 22.4995 0.5 20.9325 0.5 18.9995V6.40579H23.5Z" stroke="#79859E"/>
<path d="M5.63959 8.5L5.63959 5.2967C5.63959 5.2967 5.0114 0 12 0C18.9886 0 18.3604 5.2967 18.3604 5.2967V8.5" stroke="#79859E"/>
<path d="M5.625 8.5426C6.40889 8.5426 6.99979 9.13976 7 9.82288C7 10.5061 6.40903 11.1041 5.625 11.1041C4.84097 11.1041 4.25 10.5061 4.25 9.82288C4.25021 9.13976 4.84111 8.5426 5.625 8.5426Z" stroke="#79859E"/>
<path d="M18.375 8.5426C19.1589 8.5426 19.7498 9.13976 19.75 9.82288C19.75 10.5061 19.159 11.1041 18.375 11.1041C17.591 11.1041 17 10.5061 17 9.82288C17.0002 9.13976 17.5911 8.5426 18.375 8.5426Z" stroke="#79859E"/>
</svg>
