<svg width="20" height="16" viewBox="0 0 20 16" fill="none" xmlns="http://www.w3.org/2000/svg">
<g opacity="0.6">
<path fill-rule="evenodd" clip-rule="evenodd" d="M1.53846 0C1.13043 0 0.739118 0.153251 0.450605 0.426027C0.162092 0.698803 0 1.06877 0 1.45455V15.2727C0 15.5248 0.138041 15.7588 0.364821 15.8914C0.5916 16.0239 0.87479 16.036 1.11324 15.9232L3.84615 14.6313L6.57907 15.9232C6.79563 16.0256 7.05052 16.0256 7.26709 15.9232L10 14.6313L12.7329 15.9232C12.9494 16.0256 13.2044 16.0256 13.4209 15.9232L16.1538 14.6313L18.8868 15.9232C19.1252 16.036 19.4084 16.0239 19.6352 15.8914C19.8619 15.7588 20 15.5248 20 15.2727V1.45455C20 1.06878 19.8379 0.698812 19.5494 0.426027C19.2609 0.153251 18.8695 0 18.4615 0H1.53846ZM1.53846 1.45455H18.4615V14.096L16.4978 13.1677C16.2813 13.0653 16.0264 13.0653 15.8098 13.1677L13.0769 14.4596L10.344 13.1677C10.1275 13.0653 9.87251 13.0653 9.656 13.1677L6.92308 14.4596L4.19016 13.1677C3.9736 13.0653 3.71871 13.0653 3.50214 13.1677L1.53846 14.096V1.45455ZM4.23077 5.81818C4.23077 5.41652 4.57517 5.09091 5 5.09091H15C15.4248 5.09091 15.7692 5.41652 15.7692 5.81818C15.7692 6.21983 15.4248 6.54545 15 6.54545H5C4.57517 6.54545 4.23077 6.21983 4.23077 5.81818ZM4.23077 8.72727C4.23077 8.32562 4.57517 8 5 8H15C15.4248 8 15.7692 8.32562 15.7692 8.72727C15.7692 9.12892 15.4248 9.45455 15 9.45455H5C4.57517 9.45455 4.23077 9.12892 4.23077 8.72727Z" fill="#79859E"/>
</g>
</svg>
