<svg width="21" height="15" viewBox="0 0 21 15" fill="none" xmlns="http://www.w3.org/2000/svg">
<path fill-rule="evenodd" clip-rule="evenodd" d="M1.50055 0C0.67212 0 0.000550032 0.67157 0.000550032 1.5V4.55111C0.000180032 4.56072 0 4.57038 0 4.58008C0 4.58978 0.000180032 4.59944 0.000550032 4.60905V13.5C0.000550032 14.3284 0.67212 15 1.50055 15H19.5005C20.329 15 21.0005 14.3284 21.0005 13.5V1.5C21.0005 0.67157 20.329 0 19.5005 0H1.50055ZM1.50055 5.33008V13.5H19.5005V5.33008H1.50055ZM19.5005 3.83008V1.5H1.50055V3.83008H19.5005ZM14.25 10.5C13.8358 10.5 13.5 10.8358 13.5 11.25C13.5 11.6642 13.8358 12 14.25 12H17.25C17.6642 12 18 11.6642 18 11.25C18 10.8358 17.6642 10.5 17.25 10.5H14.25ZM9 11.25C9 10.8358 9.3358 10.5 9.75 10.5H11.25C11.6642 10.5 12 10.8358 12 11.25C12 11.6642 11.6642 12 11.25 12H9.75C9.3358 12 9 11.6642 9 11.25Z" fill="#79859E"/>
</svg>
