<svg width="33" height="21" viewBox="0 0 33 21" fill="none" xmlns="http://www.w3.org/2000/svg">
<path d="M23.2771 13.8336L8.5 13.8336M8.5 13.8336L11.5168 16.9448M8.5 13.8336L11.5168 10.7224" stroke="#C9D1E2"/>
<path d="M8.88874 7.61123L24.0547 7.61123M24.0547 7.61123L21.0379 4.5M24.0547 7.61123L21.0379 10.7224" stroke="#C9D1E2"/>
<path d="M18.5 17.5V18.5C18.5 19.6046 19.3954 20.5 20.5 20.5H30.5C31.6046 20.5 32.5 19.6046 32.5 18.5V2.5C32.5 1.39543 31.6046 0.5 30.5 0.5H20.5C19.3954 0.5 18.5 1.39543 18.5 2.5V3.5" stroke="#C9D1E2"/>
<path d="M14.5 3.5L14.5 2.5C14.5 1.39543 13.6046 0.5 12.5 0.5L2.5 0.499999C1.39543 0.499999 0.500002 1.39543 0.500002 2.5L0.5 18.5C0.5 19.6046 1.39543 20.5 2.5 20.5L12.5 20.5C13.6046 20.5 14.5 19.6046 14.5 18.5L14.5 17.5" stroke="#C9D1E2"/>
</svg>
