<svg width="26" height="25" viewBox="0 0 26 25" fill="none" xmlns="http://www.w3.org/2000/svg">
<mask id="path-1-inside-1_1549_33664" fill="white">
<path d="M20 0C23.3137 0 26 2.68629 26 6V14C26 17.3137 23.3137 20 20 20H10.6895L4 25V19.6572C1.66984 18.8334 1.0158e-07 16.6123 0 14V6C1.28855e-07 2.68629 2.68629 1.61064e-08 6 0H20Z"/>
</mask>
<path d="M26 6H27H26ZM26 14H27H26ZM20 20V21V20ZM10.6895 20V19H10.357L10.0908 19.199L10.6895 20ZM4 25H3V26.9959L4.59869 25.801L4 25ZM4 19.6572H5V18.9501L4.33332 18.7144L4 19.6572ZM0 14H-1H0ZM0 6H-1H0ZM6 0V-1V0ZM20 0V1C22.7614 1 25 3.23858 25 6H26H27C27 2.13401 23.866 -1 20 -1V0ZM26 6H25V14H26H27V6H26ZM26 14H25C25 16.7614 22.7614 19 20 19V20V21C23.866 21 27 17.866 27 14H26ZM20 20V19H10.6895V20V21H20V20ZM10.6895 20L10.0908 19.199L3.40131 24.199L4 25L4.59869 25.801L11.2881 20.801L10.6895 20ZM4 25H5V19.6572H4H3V25H4ZM4 19.6572L4.33332 18.7144C2.38983 18.0273 1 16.175 1 14H0H-1C-1 17.0496 0.949848 19.6395 3.66668 20.6L4 19.6572ZM0 14H1V6H0H-1V14H0ZM0 6H1C1 3.23858 3.23858 1 6 1V0V-1C2.13401 -1 -1 2.13401 -1 6H0ZM6 0V1H20V0V-1H6V0Z" fill="#79859E" mask="url(#path-1-inside-1_1549_33664)"/>
</svg>
