<svg width="22" height="22" viewBox="0 0 22 22" fill="none" xmlns="http://www.w3.org/2000/svg">
  <path d="M8.49995 1C4.72876 1 2.84317 1 1.6716 2.17155C1.67158 2.17156 1.67156 2.17158 1.67155 2.1716C0.5 3.34317 0.5 5.22878 0.5 9" stroke="#C9D1E2" />
  <path d="M12.5 21C16.2712 21 18.1568 21 19.3284 19.8285C19.3284 19.8284 19.3284 19.8284 19.3285 19.8284C20.5 18.6568 20.5 16.7712 20.5 13" stroke="#C9D1E2" />
  <path d="M0.500001 13C0.500001 16.7712 0.5 18.6568 1.67155 19.8284C1.67156 19.8284 1.67158 19.8284 1.6716 19.8285C2.84317 21 4.72876 21 8.49995 21" stroke="#C9D1E2" />
  <path d="M20.8275 3.00324C21.0228 3.1985 21.0228 3.51508 20.8275 3.71035L11.3997 13.1382C11.3448 13.1931 11.2778 13.2345 11.2043 13.259L7.66872 14.4385C7.48919 14.4983 7.29091 14.4513 7.15703 14.3176C7.02322 14.1838 6.97651 13.9855 7.03619 13.806L8.21493 10.2697C8.23949 10.1962 8.28096 10.1291 8.33577 10.0743L17.7636 0.646447C17.9589 0.451184 18.2755 0.451184 18.4707 0.646447L20.8275 3.00324Z" stroke="#C9D1E2" stroke-linejoin="round" />
</svg>