<svg width="24" height="24" viewBox="0 0 24 24" fill="none" xmlns="http://www.w3.org/2000/svg">
<g clip-path="url(#clip0_1549_16676)">
<path d="M17.3012 2.79995H10.5012C10.3012 2.79995 10.2012 2.69995 10.2012 2.49995C10.2012 2.29995 10.3012 2.19995 10.5012 2.19995H17.3012C17.5012 2.19995 17.6012 2.29995 17.6012 2.49995C17.7012 2.69995 17.5012 2.79995 17.3012 2.79995Z" fill="#79859E"/>
<path d="M17.3012 4.69998H10.5012C10.3012 4.69998 10.2012 4.59998 10.2012 4.39998C10.2012 4.19998 10.3012 4.09998 10.5012 4.09998H17.3012C17.5012 4.09998 17.6012 4.19998 17.6012 4.39998C17.7012 4.49998 17.5012 4.69998 17.3012 4.69998Z" fill="#79859E"/>
<path d="M17.3012 6.50002H10.5012C10.3012 6.50002 10.2012 6.40002 10.2012 6.20002C10.2012 6.00002 10.3012 5.90002 10.5012 5.90002H17.3012C17.5012 5.90002 17.6012 6.00002 17.6012 6.20002C17.7012 6.40002 17.5012 6.50002 17.3012 6.50002Z" fill="#79859E"/>
<path d="M17.3012 8.40005H10.5012C10.3012 8.40005 10.2012 8.30005 10.2012 8.10005C10.2012 7.90005 10.3012 7.80005 10.5012 7.80005H17.3012C17.5012 7.80005 17.6012 7.90005 17.6012 8.10005C17.7012 8.20005 17.5012 8.40005 17.3012 8.40005Z" fill="#79859E"/>
<path d="M22.7004 4.1C22.7004 3.6 22.5004 3.2 22.2004 2.8C21.4004 2.1 20.7004 1.3 20.0004 0.6C19.5004 0.2 19.0004 0 18.5004 0C15.6004 0 12.7004 0 9.90039 0C8.70039 0 8.10039 0.6 8.10039 1.7C8.10039 4 8.10039 6.2 8.10039 8.5C8.10039 8.7 8.00039 8.8 7.90039 9C6.60039 10 5.20039 11 3.90039 12C3.20039 12.5 2.80039 13.2 2.70039 14C2.70039 14.3 2.70039 20.2 2.70039 20.8C2.60039 20.8 2.50039 20.8 2.40039 20.8C1.80039 20.8 1.40039 21.2 1.40039 21.8C1.40039 22.3 1.40039 22.7 1.40039 23.2C1.40039 23.8 1.80039 24.2 2.40039 24.2C4.80039 24.2 7.20039 24.2 9.60039 24.2C10.2004 24.2 10.6004 23.8 10.6004 23.3C10.6004 22.8 10.6004 22.4 10.6004 21.9C10.6004 21.3 10.2004 21 9.60039 21C9.50039 21 9.30039 21 9.20039 21C9.20039 20.8 9.20039 20.6 9.20039 20.4C9.70039 20.3 10.1004 20.1 10.5004 19.7C10.6004 19.6 10.8004 19.5 11.0004 19.5C14.4004 19.5 17.7004 19.5 21.1004 19.5C22.2004 19.5 22.9004 18.9 22.9004 17.7C22.7004 15.9 22.7004 4.7 22.7004 4.1ZM19.5004 1.1C20.2004 1.8 20.9004 2.5 21.6004 3.2C20.9004 3.2 20.2004 3.2 19.5004 3.2C19.5004 2.5 19.5004 1.8 19.5004 1.1ZM9.30039 21.3C9.80039 21.3 9.80039 21.4 9.80039 21.8C9.80039 22.2 9.80039 22.5 9.80039 22.9C9.80039 23.2 9.70039 23.3 9.40039 23.3C7.00039 23.3 4.70039 23.3 2.30039 23.3C2.10039 23.4 2.00039 23.3 2.00039 23C2.00039 22.6 2.00039 22.2 2.00039 21.9C2.00039 21.5 2.10039 21.4 2.50039 21.4C3.60039 21.4 4.80039 21.4 5.90039 21.4C7.10039 21.3 8.20039 21.3 9.30039 21.3ZM20.9004 18.7C17.7004 18.7 11.0004 18.7 10.9004 18.7C10.9004 18.5 11.0004 18.3 11.0004 18C11.0004 17.8 11.0004 17.6 10.7004 17.6C10.5004 17.6 10.4004 17.8 10.4004 18C10.3004 18.9 9.70039 19.5 8.80039 19.6C8.50039 19.6 8.40039 19.8 8.40039 20C8.40039 20.3 8.40039 20.5 8.40039 20.8C6.70039 20.8 5.00039 20.8 3.30039 20.8C3.30039 20.7 3.30039 20.6 3.30039 20.5C3.30039 20.1 3.30039 15.3 3.30039 14.6C3.30039 13.7 3.60039 13 4.40039 12.4C4.70039 12.2 4.90039 12 5.20039 11.8C6.20039 11.1 7.10039 10.4 8.10039 9.6C8.10039 10.4 8.10039 11.1 8.10039 11.9C8.10039 12.1 8.00039 12.2 7.90039 12.3C7.20039 12.8 6.40039 13.4 5.70039 13.9C5.50039 14 5.50039 14.2 5.60039 14.4C5.70039 14.6 5.90039 14.6 6.10039 14.4C6.20039 14.4 6.20039 14.3 6.30039 14.3C7.40039 13.5 8.60039 12.6 9.70039 11.8L9.80039 11.7C10.1004 11.5 10.4004 11.5 10.6004 11.8C10.8004 12.1 10.7004 12.3 10.4004 12.6C9.90039 13 9.30039 13.4 8.80039 13.8C7.90039 14.5 7.70039 15.2 8.00039 16.3C8.20039 16.9 8.00039 17.5 7.60039 17.9C7.30039 18.2 7.00039 18.4 6.70039 18.7C6.50039 18.8 6.50039 19 6.60039 19.2C6.80039 19.4 6.90039 19.3 7.10039 19.2C7.40039 18.9 7.70039 18.7 8.00039 18.4C8.70039 17.8 8.80039 17 8.60039 16.2C8.40039 15.4 8.50039 14.9 9.20039 14.4C9.80039 14 10.3004 13.5 10.9004 13.1C11.3004 12.8 11.4004 12.5 11.3004 12C11.2004 11.2 10.3004 10.8 9.50039 11.2C9.20039 11.4 9.00039 11.6 8.70039 11.8C8.70039 11.7 8.70039 11.7 8.70039 11.6C8.70039 8.3 8.70039 5 8.70039 1.7C8.70039 1.1 9.10039 0.7 9.70039 0.7C12.6004 0.7 15.6004 0.7 18.5004 0.7C18.7004 0.7 18.8004 0.7 18.8004 1C18.8004 1.8 18.8004 2.7 18.8004 3.5C18.8004 3.9 18.9004 3.9 19.2004 3.9C19.6004 3.9 20.0004 3.9 20.3004 3.9C20.8004 3.9 21.3004 3.9 21.9004 3.9C21.9004 4.1 21.9004 4.2 21.9004 4.3C21.9004 4.8 21.9004 7.7 21.9004 9.9C21.9004 10 21.9004 10 21.9004 10.1C21.9004 10.5 21.9004 10.9 21.9004 11.3C21.9004 13.4 21.9004 15.5 21.9004 17.6C22.0004 18.3 21.7004 18.7 20.9004 18.7Z" fill="#79859E"/>
</g>
<defs>
<clipPath id="clip0_1549_16676">
<rect width="24" height="24" fill="white"/>
</clipPath>
</defs>
</svg>
