<svg width="22" height="20" viewBox="0 0 22 20" fill="none" xmlns="http://www.w3.org/2000/svg">
<path d="M16.2705 0.5C19.1014 0.5 21.5 3.10191 21.5 6.4209C21.4999 7.92222 20.9972 9.34767 20.0918 10.4473L20.0596 10.4854L20.04 10.5215L20.0361 10.5254L20.0264 10.5361L19.8281 10.7344L19.7373 10.8223L19.7324 10.8271L10.999 19.4834L2.55273 11.124L2.51953 11.0654L2.46289 11.0137L2.23535 10.7959C1.1322 9.67429 0.50011 8.10715 0.5 6.4209C0.5 3.10191 2.89862 0.5 5.72949 0.5C6.79612 0.500105 7.80447 0.993548 8.6709 1.6543C9.53324 2.31196 10.2103 3.10147 10.6035 3.61328L11 4.12988L11.3965 3.61328C11.7897 3.10147 12.4668 2.31196 13.3291 1.6543C14.1955 0.993548 15.2039 0.500105 16.2705 0.5Z" stroke="#79859E"/>
</svg>
