<svg width="19" height="23" viewBox="0 0 19 23" fill="none" xmlns="http://www.w3.org/2000/svg">
<path d="M9.10449 0.5C13.824 0.500186 17.708 4.55512 17.708 9.59375C17.708 11.0646 17.2048 12.6117 16.417 14.125C15.6309 15.6348 14.5773 17.0822 13.5137 18.3457C12.4511 19.6079 11.3868 20.6769 10.5879 21.4307C10.1888 21.8072 9.85662 22.1043 9.625 22.3066C9.60247 22.3263 9.58017 22.3444 9.55957 22.3623C9.53234 22.3419 9.50308 22.3208 9.47266 22.2979C9.21541 22.1037 8.84655 21.8179 8.40332 21.4541C7.51586 20.7257 6.33423 19.6866 5.1543 18.4453C3.97305 17.2026 2.80352 15.7672 1.93164 14.2451C1.05829 12.7204 0.500029 11.1381 0.5 9.59375C0.5 4.55501 4.38498 0.5 9.10449 0.5Z" stroke="#79859E"/>
<circle cx="9" cy="9" r="4.5" stroke="#79859E"/>
</svg>
