<svg width="18" height="16" viewBox="0 0 18 16" fill="none" xmlns="http://www.w3.org/2000/svg">
<path fill-rule="evenodd" clip-rule="evenodd" d="M2.07692 0H15.9231C17.0701 0 18 0.9402 18 2.1V11.9C18 13.0598 17.0701 14 15.9231 14H2.07692C0.92987 14 0 13.0598 0 11.9V2.1C0 0.9402 0.92987 0 2.07692 0ZM6.6 15H11.4C11.5591 15 11.7117 15.0527 11.8243 15.1464C11.9368 15.2402 12 15.3674 12 15.5C12 15.6326 11.9368 15.7598 11.8243 15.8536C11.7117 15.9473 11.5591 16 11.4 16H6.6C6.44087 16 6.28826 15.9473 6.17574 15.8536C6.06321 15.7598 6 15.6326 6 15.5C6 15.3674 6.06321 15.2402 6.17574 15.1464C6.28826 15.0527 6.44087 15 6.6 15ZM15.5 1.5H2.5C2 1.5 1.5 2 1.5 2.5V11.5C1.5 12 2 12.5 2.5 12.5H15.5C16 12.5 16.5 12 16.5 11.5V2.5C16.5 2 16 1.5 15.5 1.5ZM6.83333 3C6.83333 2.72386 7.0572 2.5 7.3333 2.5H9.8333C10.5553 2.5 11.2379 2.81327 11.734 3.35443C12.2287 3.89414 12.5 4.61751 12.5 5.36364C12.5 6.1401 12.2067 6.7222 11.734 7.2379C11.2029 7.8172 10.4965 8 9.8333 8H7.8333V9H10C10.2761 9 10.5 9.2239 10.5 9.5C10.5 9.7761 10.2761 10 10 10H7.8333V11C7.8333 11.2761 7.6095 11.5 7.3333 11.5C7.0572 11.5 6.83333 11.2761 6.83333 11V10H6C5.72386 10 5.5 9.7761 5.5 9.5C5.5 9.2239 5.72386 9 6 9H6.83333V8H6C5.72386 8 5.5 7.7761 5.5 7.5C5.5 7.2239 5.72386 7 6 7H6.83333V3ZM7.8333 7H9.8333C10.3194 7 10.7152 6.8693 10.9968 6.5621C11.3368 6.1913 11.5 5.84095 11.5 5.36364C11.5 4.85601 11.3147 4.37699 10.9968 4.03016C10.6802 3.68478 10.2606 3.5 9.8333 3.5H7.8333V7Z" fill="#79859E"/>
</svg>
