<svg width="20" height="16" viewBox="0 0 20 16" fill="none" xmlns="http://www.w3.org/2000/svg">
  <path d="M6.25 0C5.58696 0 4.95107 0.25934 4.48223 0.720968C4.01339 1.1826 3.75 1.8087 3.75 2.46154V3.69231H16.25V2.46154C16.25 1.8087 15.9866 1.1826 15.5178 0.720968C15.0489 0.25934 14.413 0 13.75 0H6.25Z" fill="#C9D1E2" />
  <path fill-rule="evenodd" clip-rule="evenodd" d="M13.75 9.84613H6.25C5.91848 9.84613 5.60054 9.9758 5.36612 10.2066C5.1317 10.4374 5 10.7505 5 11.0769V14.7692C5 15.0956 5.1317 15.4087 5.36612 15.6395C5.60054 15.8703 5.91848 16 6.25 16H13.75C14.0815 16 14.3995 15.8703 14.6339 15.6395C14.8683 15.4087 15 15.0956 15 14.7692V11.0769C15 10.7505 14.8683 10.4374 14.6339 10.2066C14.3995 9.9758 14.0815 9.84613 13.75 9.84613Z" fill="#C9D1E2" />
  <path fill-rule="evenodd" clip-rule="evenodd" d="M0 7.38463C0 6.73179 0.263392 6.10569 0.732233 5.64406C1.20107 5.18244 1.83696 4.9231 2.5 4.9231H17.5C18.163 4.9231 18.7989 5.18244 19.2678 5.64406C19.7366 6.10569 20 6.73179 20 7.38463V11.0769C20 11.7298 19.7366 12.3559 19.2678 12.8175C18.7989 13.2791 18.163 13.5385 17.5 13.5385H16.25V11.0769C16.25 10.4241 15.9866 9.798 15.5178 9.33637C15.0489 8.87474 14.413 8.6154 13.75 8.6154H6.25C5.58696 8.6154 4.95107 8.87474 4.48223 9.33637C4.01339 9.798 3.75 10.4241 3.75 11.0769V13.5385H2.5C1.83696 13.5385 1.20107 13.2791 0.732233 12.8175C0.263392 12.3559 0 11.7298 0 11.0769V7.38463ZM3.125 8.6154C3.29076 8.6154 3.44973 8.55057 3.56694 8.43516C3.68415 8.31975 3.75 8.16323 3.75 8.00002C3.75 7.83681 3.68415 7.68028 3.56694 7.56488C3.44973 7.44947 3.29076 7.38463 3.125 7.38463C2.95924 7.38463 2.80027 7.44947 2.68306 7.56488C2.56585 7.68028 2.5 7.83681 2.5 8.00002C2.5 8.16323 2.56585 8.31975 2.68306 8.43516C2.80027 8.55057 2.95924 8.6154 3.125 8.6154Z" fill="#C9D1E2" />
</svg>