<svg width="18" height="20" viewBox="0 0 18 20" fill="none" xmlns="http://www.w3.org/2000/svg">
<rect x="0.5" y="19.5" width="19" height="17" rx="2.5" transform="rotate(-90 0.5 19.5)" stroke="#79859E"/>
<path d="M9 13.833C12.2279 13.833 14.0912 14.7982 15.1465 15.8535C16.2164 16.9235 16.5 18.1287 16.5 18.667C16.4999 18.9125 16.4402 19.0637 16.376 19.1602C16.3096 19.2598 16.2167 19.3321 16.1094 19.3857C16.0001 19.4403 15.8852 19.471 15.793 19.4863C15.7481 19.4938 15.7116 19.4974 15.6885 19.499C15.677 19.4998 15.6689 19.4999 15.665 19.5H2.33496C2.33107 19.4999 2.32297 19.4998 2.31152 19.499C2.28835 19.4974 2.2519 19.4938 2.20703 19.4863C2.11483 19.471 1.99985 19.4403 1.89062 19.3857C1.78327 19.3321 1.69045 19.2598 1.62402 19.1602C1.55975 19.0637 1.50005 18.9125 1.5 18.667C1.5 18.1287 1.78357 16.9235 2.85352 15.8535C3.90881 14.7982 5.77211 13.833 9 13.833ZM9 4.5C9.92826 4.5 10.8182 4.86901 11.4746 5.52539C12.131 6.18177 12.5 7.07174 12.5 8C12.5 8.92826 12.131 9.81823 11.4746 10.4746C10.8182 11.131 9.92826 11.5 9 11.5C8.07174 11.5 7.18177 11.131 6.52539 10.4746C5.86901 9.81823 5.5 8.92826 5.5 8C5.5 7.07174 5.86901 6.18177 6.52539 5.52539C7.18177 4.86901 8.07174 4.5 9 4.5Z" stroke="#79859E"/>
</svg>
