<svg width="24" height="24" viewBox="0 0 24 24" fill="none" xmlns="http://www.w3.org/2000/svg">
<path d="M15.0539 18.7145L18.7286 20.5516C18.7655 20.5702 18.8027 20.5903 18.8404 20.6119V21.2613C18.7647 21.3195 18.6644 21.3941 18.5405 21.4803C18.2215 21.7024 17.7476 22.0014 17.1372 22.3012C15.9158 22.901 14.1562 23.5 11.9999 23.5C9.84527 23.5 8.07407 22.889 6.83972 22.2761C6.22297 21.9699 5.74267 21.6644 5.41877 21.4373C5.29074 21.3475 5.18735 21.2701 5.10986 21.21V20.5645C5.13179 20.5515 5.15353 20.5392 5.17509 20.5275L5.1757 20.5272L8.60787 18.655L8.6083 18.6548C9.07968 18.3971 9.37283 17.9034 9.37283 17.3662V16.11V15.9421L9.27153 15.8083C9.02257 15.4793 8.34283 14.4983 8.01472 13.2131L7.97411 13.054L7.8471 12.9499C7.59437 12.7429 7.44861 12.4384 7.44861 12.1122V10.5735C7.44861 10.3198 7.54215 10.0697 7.71285 9.87103L7.83363 9.73048V9.54516V7.51937V7.49434L7.83113 7.46943C7.81259 7.28476 7.74764 6.19214 8.52688 5.30369L8.52701 5.30354C9.19591 4.54027 10.324 4.09888 11.9999 4.09888C13.6757 4.09888 14.8037 4.54027 15.4726 5.30389L15.4728 5.30413C16.2521 6.19258 16.1872 7.28432 16.1686 7.47005L16.1661 7.49487V7.51981V9.5456V9.73116L16.2872 9.87179C16.4578 10.07 16.5511 10.3199 16.5511 10.5739V12.1127C16.5511 12.5349 16.3101 12.9088 15.9315 13.0887L15.7421 13.1787L15.6736 13.3769C15.4103 14.1379 15.0502 14.8426 14.6029 15.4745C14.5151 15.598 14.4316 15.7084 14.3542 15.804L14.2427 15.9416V16.1187V17.4022C14.2427 17.9601 14.5546 18.4649 15.0539 18.7145Z" stroke="#79859E"/>
<path d="M12 23.5C18.3513 23.5 23.5 18.3513 23.5 12C23.5 5.64873 18.3513 0.5 12 0.5C5.64873 0.5 0.5 5.64873 0.5 12C0.5 18.3513 5.64873 23.5 12 23.5Z" stroke="#79859E"/>
</svg>
