<svg width="16" height="16" viewBox="0 0 16 16" fill="none" xmlns="http://www.w3.org/2000/svg">
<path d="M0.888667 0C0.398 0 0 0.398 0 0.888667V4.44467C0 4.93533 0.398 5.33333 0.888667 5.33333H4.44467C4.93533 5.33333 5.33333 4.93533 5.33333 4.44467V0.888667C5.33333 0.398 4.93533 0 4.44467 0H0.888667ZM7.11133 0V1.778H8.88867V0H7.11133ZM11.5553 0C11.0647 0 10.6667 0.398 10.6667 0.888667V4.44467C10.6667 4.93533 11.0647 5.33333 11.5553 5.33333H15.1113C15.602 5.33333 16 4.93533 16 4.44467V0.888667C16 0.398 15.602 0 15.1113 0H11.5553ZM1.778 1.778H3.55533V3.55533H1.778V1.778ZM12.4447 1.778H14.222V3.55533H12.4447V1.778ZM7.11133 3.55533V5.33333H8.88867V3.55533H7.11133ZM0 7.11133V8.88867H1.778V7.11133H0ZM3.55533 7.11133V8.88867H5.33333V7.11133H3.55533ZM7.11133 7.11133V8.88867H8.88867V7.11133H7.11133ZM8.88867 8.88867V10.6667H10.6667V8.88867H8.88867ZM10.6667 8.88867H12.4447V7.11133H10.6667V8.88867ZM12.4447 8.88867V10.6667H14.222V8.88867H12.4447ZM14.222 8.88867H16V7.11133H14.222V8.88867ZM14.222 10.6667V12.4447H16V10.6667H14.222ZM14.222 12.4447H12.4447V14.222H14.222V12.4447ZM14.222 14.222V16H16V14.222H14.222ZM12.4447 14.222H10.6667V16H12.4447V14.222ZM10.6667 14.222V12.4447H8.88867V14.222H10.6667ZM8.88867 14.222H7.11133V16H8.88867V14.222ZM8.88867 12.4447V10.6667H7.11133V12.4447H8.88867ZM10.6667 12.4447H12.4447V10.6667H10.6667V12.4447ZM0.888667 10.6667C0.398 10.6667 0 11.0647 0 11.5553V15.1113C0 15.602 0.398 16 0.888667 16H4.44467C4.93533 16 5.33333 15.602 5.33333 15.1113V11.5553C5.33333 11.0647 4.93533 10.6667 4.44467 10.6667H0.888667ZM1.778 12.4447H3.55533V14.222H1.778V12.4447Z" fill="#79859E"/>
</svg>
