<svg width="18" height="16" viewBox="0 0 18 16" fill="none" xmlns="http://www.w3.org/2000/svg">
<path fill-rule="evenodd" clip-rule="evenodd" d="M12.7433 0.0454507C13.1246 -0.0259193 13.517 -0.0131096 13.8928 0.0829834C14.2708 0.179631 14.6227 0.358137 14.9234 0.605778C15.2241 0.853418 15.4662 1.16407 15.6324 1.5156C15.7986 1.86712 15.8848 2.25083 15.885 2.63936V3.23921C17.0874 3.45367 18 4.50034 18 5.75922V13.4398C18 14.8538 16.8487 16 15.4286 16H2.57143C1.15127 16 3.5025e-07 14.8538 3.5025e-07 13.4398V6.39987V5.75922V4.43991C-0.000316793 3.82528 0.214749 3.22961 0.608135 2.75592C1.00161 2.28213 1.54881 1.95991 2.15537 1.84482L2.16756 1.84263L12.7433 0.0454507ZM14.5993 2.63978V3.19901H2.57143C2.35427 3.19901 2.1434 3.22581 1.94196 3.27627C2.07905 3.19327 2.23077 3.13434 2.39055 3.10334L12.9653 1.30634L12.9775 1.30415C13.175 1.26668 13.3783 1.27307 13.573 1.32285C13.7677 1.37264 13.949 1.4646 14.1039 1.59217C14.2588 1.71974 14.3835 1.87978 14.4692 2.06086C14.5547 2.24189 14.5992 2.43969 14.5993 2.63978ZM1.28571 13.4398V6.39987V5.7581C1.28631 5.05163 1.86172 4.47911 2.57143 4.47911H15.4286C16.1386 4.47911 16.7143 5.05223 16.7143 5.75922V13.4398C16.7143 14.1468 16.1386 14.7199 15.4286 14.7199H2.57143C1.86135 14.7199 1.28571 14.1468 1.28571 13.4398ZM13.5 10.8792C13.2457 10.8792 12.9971 10.8041 12.7857 10.6635C12.5743 10.5228 12.4095 10.3229 12.3122 10.089C12.2148 9.85508 12.1893 9.59769 12.239 9.34935C12.2886 9.1011 12.4111 8.87298 12.5908 8.69394C12.7707 8.5149 12.9998 8.39303 13.2492 8.34362C13.4985 8.29421 13.7571 8.31955 13.992 8.41641C14.2269 8.51336 14.4278 8.67738 14.569 8.88792C14.7103 9.09845 14.7857 9.34594 14.7857 9.59914C14.7857 9.93863 14.6503 10.2642 14.4092 10.5043C14.1681 10.7443 13.841 10.8792 13.5 10.8792Z" fill="#79859E"/>
</svg>
