<svg width="24" height="24" viewBox="0 0 24 24" fill="none" xmlns="http://www.w3.org/2000/svg">
<path fill-rule="evenodd" clip-rule="evenodd" d="M12 0C5.37257 0 0 4.97459 0 11.1111C0 14.6078 1.74499 17.7267 4.47205 19.7635V24L8.55794 21.7576C9.64837 22.0593 10.8036 22.2222 12 22.2222C18.6274 22.2222 24 17.2476 24 11.1111C24 4.97459 18.6274 0 12 0Z" fill="#C3CAD9"/>
<path d="M11.56 15.016L11.144 17H9.08L9.512 15.016H11.56ZM11.624 13.816H9.912C10.312 11.848 10.632 11.512 12.456 10.344C13.352 9.768 13.8 9.144 13.8 8.424C13.8 7.528 13.176 6.952 12.168 6.952C10.744 6.952 10.168 7.976 9.96 9.208H8.152C8.424 6.84 9.96 5.416 12.28 5.416C14.36 5.416 15.704 6.536 15.704 8.232C15.704 10.056 14.488 10.808 13.128 11.688C11.816 12.536 11.784 13.24 11.624 13.816Z" fill="white"/>
</svg>
