<svg width="28" height="24" viewBox="0 0 28 24" fill="none" xmlns="http://www.w3.org/2000/svg">
  <rect x="10.5" y="0.5" width="17" height="23" rx="1.5" fill="white" stroke="#C9D1E2" />
  <rect y="8" width="24" height="12" rx="2" fill="#BD2539" />
  <path d="M4.58896 10.4C5.47334 10.4 6.11865 10.5906 6.5249 10.9719C6.93115 11.35 7.13428 11.8719 7.13428 12.5375C7.13428 12.8375 7.08896 13.125 6.99834 13.4C6.90771 13.6719 6.75928 13.9141 6.55303 14.1266C6.3499 14.3391 6.07803 14.5078 5.7374 14.6328C5.39678 14.7547 4.97646 14.8156 4.47646 14.8156H3.85303V17.2531H2.3999V10.4H4.58896ZM4.51396 11.5906H3.85303V13.625H4.33115C4.60303 13.625 4.83896 13.5891 5.03896 13.5172C5.23896 13.4453 5.39365 13.3328 5.50303 13.1797C5.6124 13.0266 5.66709 12.8297 5.66709 12.5891C5.66709 12.2516 5.57334 12.0016 5.38584 11.8391C5.19834 11.6735 4.90771 11.5906 4.51396 11.5906Z" fill="white" />
  <path d="M15.074 13.761C15.074 14.5328 14.9255 15.1781 14.6287 15.6969C14.3349 16.2125 13.9083 16.6016 13.349 16.8641C12.7896 17.1235 12.1162 17.2531 11.3287 17.2531H9.38803V10.4H11.5396C12.2583 10.4 12.8818 10.5281 13.4099 10.7844C13.938 11.0375 14.3474 11.4141 14.638 11.9141C14.9287 12.411 15.074 13.0266 15.074 13.761ZM13.5646 13.7985C13.5646 13.2922 13.4896 12.8766 13.3396 12.5516C13.1927 12.2235 12.974 11.9813 12.6833 11.825C12.3958 11.6688 12.0396 11.5906 11.6146 11.5906H10.8412V16.0531H11.4646C12.174 16.0531 12.7005 15.8641 13.0443 15.486C13.3912 15.1078 13.5646 14.5453 13.5646 13.7985Z" fill="white" />
  <path d="M18.884 17.2531H17.4543V10.4H21.3824V11.5906H18.884V13.3578H21.209V14.5438H18.884V17.2531Z" fill="white" />
</svg>