<svg width="30" height="30" viewBox="0 0 30 30" fill="none" xmlns="http://www.w3.org/2000/svg">
<g clip-path="url(#clip0_1549_14871)">
<mask id="mask0_1549_14871" style="mask-type:luminance" maskUnits="userSpaceOnUse" x="0" y="0" width="30" height="30">
<path d="M0 0H30V30H0V0Z" fill="white"/>
</mask>
<g mask="url(#mask0_1549_14871)">
<path d="M15.0001 0C8.56602 0 3.09383 4.05937 0.962891 9.75H29.0363C26.9063 4.05937 21.4341 0 15.0001 0Z" fill="#F8F8F8"/>
<path d="M30 15C29.9967 13.2064 29.6706 11.428 29.0372 9.75H0.962812C0.329414 11.428 0.00327496 13.2064 0 15C0 16.8506 0.350625 18.6131 0.962812 20.25H29.0363C29.6703 18.5721 29.9968 16.7937 30 15Z" fill="#1976D2"/>
<path d="M29.0373 20.25H0.962891C3.09383 25.9406 8.56602 30 15.0001 30C21.4341 30 26.9063 25.9406 29.0373 20.25Z" fill="#FF3D00"/>
<path d="M4.5 7.5V9C4.5 14.25 7.5 15 7.5 15C7.5 15 10.5 14.25 10.5 9V7.5H4.5Z" fill="#1976D2"/>
<path d="M10.5 7.5V9C10.5 14.25 7.5 15 7.5 15C7.5 15 4.5 14.25 4.5 9V7.5H3.75V9C3.75 14.7684 7.17188 15.6919 7.31813 15.7294L7.5 15.7734L7.68188 15.7266C7.82812 15.6909 11.25 14.7675 11.25 9V7.5H10.5Z" fill="#FF3D00"/>
<path d="M9 10.5L8.25 11.25L7.5 9.75L6.75 11.25L6 10.5L4.82812 11.6719C5.60156 14.5162 7.5 15 7.5 15C7.5 15 9.39844 14.5162 10.1719 11.6719L9 10.5Z" fill="#F8F8F8"/>
</g>
</g>
<defs>
<clipPath id="clip0_1549_14871">
<rect width="30" height="30" fill="white"/>
</clipPath>
</defs>
</svg>
