<svg width="143" height="48" viewBox="0 0 143 48" fill="none" xmlns="http://www.w3.org/2000/svg">
<mask id="mask0_1583_1347" style="mask-type:luminance" maskUnits="userSpaceOnUse" x="0" y="0" width="143" height="48">
<path d="M142.71 0H0V48H142.71V0Z" fill="white"/>
</mask>
<g mask="url(#mask0_1583_1347)">
<path d="M97.9689 0.644979V11.7454L108.424 0.678925H115.757L105.335 11.2023L116.775 27.3946H109.375L101.33 15.3777L97.9689 18.7723V27.3946H92.0622V0.644979H97.9689ZM70.744 18.5007C70.744 22.0651 73.5276 23.4569 76.6506 23.4569C78.7214 23.4569 81.8444 22.8458 81.8444 20.1301C81.8444 17.2447 77.8388 16.7694 73.901 15.7171C69.9632 14.6648 65.9236 13.1372 65.9236 8.11315C65.9576 2.61386 71.1174 0 75.9378 0C81.505 0 86.6648 2.44413 86.6648 8.62235H80.9958C80.826 5.39745 78.5177 4.58274 75.7341 4.58274C73.867 4.58274 71.6945 5.36351 71.6945 7.60396C71.6945 9.67468 72.9844 9.91231 79.6719 11.6436C81.6068 12.1188 87.6153 13.3748 87.6153 19.4512C87.6153 24.3734 83.7454 28.0396 76.4809 28.0396C70.5743 28.0396 65.0071 25.1202 65.1089 18.5347L70.744 18.5007ZM47.4229 17.041H54.348L50.9873 7.23055H50.9194L47.4229 17.041ZM47.9661 0.644979H54.0085L64.0226 27.3946H57.9123L55.8755 21.454H45.8614L43.7907 27.3946H37.8501L47.9661 0.644979ZM26.6818 0.746818V20.7412C26.6818 20.7412 26.6818 27.4625 20.0283 27.4625V17.4823H6.68741V20.8091H16.7016C16.7016 20.8091 16.7016 27.4965 10.0141 27.4965H0V17.4144C0 10.761 6.68741 10.761 6.68741 10.761H16.7016C20.0283 10.761 20.0283 7.46818 20.0283 7.46818H0.0339463C0.0339463 7.46818 0 0.746818 6.68741 0.746818H26.6818Z" fill="#BD2539"/>
<path d="M129.573 23.0835C134.868 23.0835 136.837 18.6025 136.837 14.1216C136.837 9.43706 134.868 4.95615 129.573 4.95615C124.277 4.95615 122.308 9.43706 122.308 14.1216C122.308 18.5686 124.277 23.0835 129.573 23.0835ZM129.573 0C137.856 0 142.71 6.17822 142.71 14.1216C142.71 21.8274 137.856 28.0057 129.573 28.0057C121.29 28.0057 116.436 21.8274 116.436 14.1216C116.436 6.17822 121.29 0 129.573 0Z" fill="#BD2539"/>
<path d="M0.611328 45.3183V35.9151H1.49393V45.3183H0.611328Z" fill="#161515"/>
<path d="M4.6167 45.3183H3.83594V38.563H4.6167V39.5134C4.88827 39.2079 5.22774 38.9364 5.60114 38.6987C5.97455 38.4951 6.38191 38.3593 6.82321 38.3932C7.23056 38.3932 7.60397 38.4611 7.97738 38.5969C8.35079 38.7666 8.65631 39.0043 8.89393 39.3437C9.06366 39.5813 9.1655 39.819 9.19945 40.0905C9.23339 40.3621 9.23339 40.6337 9.23339 40.9052V45.3183H8.45263V40.9052C8.48658 40.43 8.35079 39.9208 8.04527 39.5474C7.67187 39.2079 7.19662 39.0382 6.68742 39.1061C6.4498 39.1061 6.21218 39.14 6.0085 39.2079C5.80482 39.2758 5.63509 39.3777 5.46536 39.5134C5.15984 39.7511 4.92222 40.0566 4.78643 40.43C4.71854 40.6337 4.65065 40.8374 4.65065 41.075C4.6167 41.2787 4.6167 41.5163 4.6167 41.72V45.3183Z" fill="#161515"/>
<path d="M11.542 43.2136C11.6099 43.6888 11.8475 44.1301 12.2209 44.4357C12.6283 44.7072 13.1035 44.8091 13.5788 44.8091C13.8164 44.8091 14.0879 44.7751 14.3256 44.7072C14.5292 44.6393 14.699 44.5375 14.8348 44.4357C14.9706 44.3338 15.0724 44.198 15.1403 44.0283C15.2082 43.8925 15.2421 43.7228 15.2421 43.5531C15.2761 43.2815 15.1403 43.0099 14.9366 42.8062C14.699 42.6365 14.4274 42.5007 14.1219 42.4328C13.7824 42.331 13.443 42.2631 13.0696 42.1952C12.6962 42.1273 12.3567 42.0255 12.0172 41.8897C11.7117 41.7539 11.4401 41.5842 11.2025 41.3465C10.9649 41.041 10.8631 40.7016 10.897 40.3282C10.897 39.785 11.1007 39.2758 11.508 38.9364C12.0172 38.529 12.6283 38.3593 13.2732 38.3932C13.9182 38.3593 14.5292 38.529 15.0724 38.8685C15.5816 39.2758 15.8871 39.8529 15.8871 40.4979H15.0724C15.0384 40.0566 14.8348 39.6492 14.4614 39.4116C14.0879 39.174 13.6466 39.0721 13.2393 39.1061C12.8319 39.0721 12.4246 39.174 12.1191 39.4116C11.8475 39.6153 11.7117 39.9208 11.7117 40.2603C11.7117 40.5318 11.8135 40.8034 12.0172 40.9731C12.2549 41.1429 12.5264 41.2787 12.8319 41.3805C13.1714 41.4823 13.5109 41.5842 13.8843 41.6521C14.2577 41.72 14.5971 41.8557 14.9366 41.9915C15.2421 42.1273 15.5137 42.331 15.7513 42.5686C15.9889 42.8741 16.0908 43.2136 16.0568 43.587C16.0568 43.8925 15.9889 44.198 15.8532 44.4357C15.7174 44.6733 15.5137 44.9109 15.2761 45.0467C15.0045 45.2164 14.7329 45.3522 14.3935 45.4201C14.0201 45.5219 13.6466 45.5559 13.3072 45.5559C12.9338 45.5559 12.5943 45.488 12.2548 45.3862C11.9493 45.2843 11.6778 45.1146 11.4741 44.877C11.2704 44.6733 11.1007 44.4357 10.9649 44.1641C10.8291 43.8925 10.7612 43.587 10.7612 43.2475L11.542 43.2136Z" fill="#161515"/>
<path d="M18.501 48H17.7202V38.563H18.501V39.7511H18.5349C18.6367 39.5474 18.8065 39.3437 18.9762 39.174C19.1459 39.0043 19.3496 38.8685 19.5533 38.7327C19.757 38.6308 19.9946 38.529 20.2322 38.4611C20.4698 38.3932 20.6735 38.3593 20.9111 38.3593C21.3864 38.3593 21.8616 38.4272 22.3029 38.6308C22.6763 38.8006 23.0158 39.0721 23.2534 39.3777C23.525 39.7171 23.6947 40.0905 23.7966 40.4979C23.8984 40.9392 23.9663 41.4144 23.9663 41.8897C23.9663 42.3649 23.8984 42.8062 23.7966 43.2475C23.6947 43.6549 23.4911 44.0622 23.2534 44.4017C23.0158 44.7412 22.6763 45.0127 22.3029 45.1825C21.8956 45.3862 21.4203 45.488 20.979 45.488C20.5038 45.488 20.0285 45.3862 19.5872 45.1485C19.1459 44.9448 18.8065 44.6054 18.5349 44.198L18.501 48ZM18.501 41.9576C18.501 42.331 18.5689 42.7044 18.6707 43.0439C18.7725 43.3833 18.9083 43.6888 19.112 43.9604C19.3157 44.198 19.5533 44.4357 19.8249 44.5714C20.1304 44.7412 20.4359 44.8091 20.7754 44.8091C21.1488 44.8091 21.4882 44.7412 21.8277 44.5714C22.1332 44.4017 22.3708 44.198 22.5745 43.8925C22.7782 43.587 22.914 43.2815 22.9819 42.9081C23.0837 42.5007 23.1177 42.1273 23.0837 41.72C23.0837 41.3465 23.0158 40.9392 22.914 40.5997C22.8121 40.2942 22.6424 40.0226 22.4387 39.785C22.235 39.5474 21.9974 39.3777 21.7259 39.2758C21.4203 39.14 21.1148 39.1061 20.8093 39.1061C20.4698 39.1061 20.1304 39.174 19.8249 39.3098C19.5533 39.4456 19.2817 39.6492 19.112 39.9208C18.9083 40.1924 18.7725 40.4979 18.6707 40.8374C18.5689 41.1768 18.501 41.5842 18.501 41.9576Z" fill="#161515"/>
<path d="M25.6973 37.0693V35.9151H26.5799V37.0693H25.6973ZM25.7312 45.3183V38.563H26.512V45.3183H25.7312Z" fill="#161515"/>
<path d="M29.3295 45.3183H28.5488V38.563H29.3295V39.819H29.3635C29.5332 39.3777 29.8048 38.9703 30.2121 38.6987C30.6195 38.4611 31.0947 38.3593 31.57 38.3932V39.2419C31.1966 39.2079 30.8232 39.2758 30.4837 39.4456C30.2121 39.5813 29.9745 39.785 29.8048 40.0566C29.635 40.3282 29.5332 40.6337 29.4653 40.9392C29.3974 41.2787 29.3635 41.6521 29.3635 42.0255L29.3295 45.3183Z" fill="#161515"/>
<path d="M33.3693 42.1273C33.3693 42.4668 33.4033 42.8402 33.5051 43.1796C33.6069 43.4852 33.7427 43.7907 33.9125 44.0283C34.1161 44.2659 34.3538 44.4696 34.6253 44.6054C35.3722 44.9448 36.2548 44.877 36.9337 44.4357C37.3071 44.1641 37.5787 43.7567 37.6466 43.2815H38.5292C38.4273 43.587 38.3255 43.8925 38.1557 44.1641C37.986 44.4357 37.8163 44.6733 37.5787 44.877C37.341 45.0806 37.0355 45.2504 36.73 45.3522C36.3566 45.488 35.9832 45.5219 35.6098 45.5219C35.1345 45.5219 34.6593 45.454 34.218 45.2504C33.8446 45.0806 33.5051 44.8091 33.2335 44.5035C32.962 44.1641 32.7922 43.7907 32.6564 43.3833C32.5207 42.942 32.4528 42.4668 32.4867 41.9915C32.4867 41.5163 32.5546 41.041 32.6904 40.5997C32.8262 40.1924 33.0299 39.785 33.3014 39.4456C33.573 39.1061 33.9125 38.8685 34.2859 38.6648C34.6932 38.4611 35.1345 38.3932 35.6098 38.3932C36.4584 38.3593 37.2731 38.6987 37.8163 39.3437C38.3594 39.9887 38.597 40.9052 38.597 42.1273H33.3693ZM37.7823 41.4823C37.7823 41.1768 37.7484 40.8374 37.6466 40.5318C37.5787 40.2603 37.4089 39.9887 37.2392 39.785C37.0695 39.5813 36.8318 39.3777 36.5603 39.2758C36.2548 39.14 35.9492 39.0721 35.6437 39.1061C35.3382 39.1061 35.0327 39.174 34.7272 39.3098C34.4556 39.4456 34.2519 39.6153 34.0482 39.819C33.8446 40.0566 33.7088 40.2942 33.6069 40.5658C33.5051 40.8713 33.4033 41.1768 33.4033 41.4823H37.7823Z" fill="#161515"/>
<path d="M45.3524 35.9151H46.1331V45.3183H45.3524V44.1301H45.3184C45.2166 44.3678 45.0468 44.5375 44.8771 44.7412C44.7074 44.9109 44.5037 45.0467 44.3 45.1485C44.0963 45.2504 43.8587 45.3522 43.655 45.4201C43.4174 45.488 43.2137 45.5219 42.9761 45.5219C42.5009 45.5219 42.0256 45.454 41.5843 45.2504C41.2109 45.0806 40.9054 44.8091 40.6338 44.5036C40.3623 44.1641 40.1925 43.7907 40.0907 43.3833C39.9888 42.942 39.9209 42.4668 39.9209 41.9915C39.9209 41.5163 39.9888 41.075 40.0907 40.6337C40.1925 40.2263 40.3962 39.819 40.6338 39.4795C40.8714 39.14 41.2109 38.8685 41.5843 38.6987C41.9917 38.4951 42.4669 38.3932 42.9082 38.3932C43.3835 38.3932 43.8587 38.4951 44.3 38.6987C44.7413 38.9024 45.0808 39.2419 45.3524 39.6492V35.9151ZM45.3524 41.9236C45.3524 41.5502 45.3184 41.1768 45.1826 40.8374C45.0808 40.4979 44.945 40.1924 44.7413 39.9208C44.5376 39.6832 44.3 39.4456 44.0284 39.3098C43.7229 39.14 43.4174 39.0721 43.078 39.0721C42.7045 39.0721 42.3311 39.14 42.0256 39.3098C41.7201 39.4795 41.4825 39.6832 41.3127 39.9547C41.1091 40.2603 40.9733 40.5658 40.9054 40.9392C40.8036 41.3465 40.7696 41.72 40.8036 42.1273C40.8036 42.5007 40.8714 42.9081 40.9733 43.2475C41.0751 43.5531 41.2449 43.8246 41.4485 44.0962C41.6522 44.3338 41.8898 44.5035 42.1953 44.6054C42.5009 44.7412 42.8064 44.7751 43.1119 44.7751C43.4514 44.7751 43.7908 44.7072 44.0963 44.5375C44.3679 44.4017 44.6395 44.198 44.8092 43.9265C45.0129 43.6549 45.1487 43.3494 45.2505 43.0099C45.3184 42.6704 45.3524 42.297 45.3524 41.9236Z" fill="#161515"/>
<path d="M52.6166 45.3183H51.8359V35.9151H52.6166V39.6492C52.8543 39.2419 53.2277 38.9024 53.669 38.6987C54.1103 38.4951 54.5855 38.3932 55.0608 38.3932C55.536 38.3932 55.9773 38.4951 56.3847 38.6987C56.7581 38.9024 57.0636 39.14 57.3352 39.4795C57.5728 39.819 57.7765 40.2263 57.8783 40.6337C58.0141 41.075 58.048 41.5163 58.048 41.9915C58.048 42.4668 57.9802 42.942 57.8783 43.3833C57.7765 43.7907 57.6067 44.1641 57.3352 44.5036C57.0976 44.8091 56.7581 45.0806 56.3847 45.2504C55.9434 45.454 55.4681 45.5559 54.9929 45.5219C54.7553 45.5219 54.5516 45.488 54.314 45.4201C54.0763 45.3522 53.8727 45.2843 53.669 45.1485C53.4653 45.0467 53.2616 44.877 53.0919 44.7412C52.9222 44.5714 52.7524 44.3678 52.6506 44.1301H52.6166V45.3183ZM52.6166 41.9236C52.6166 42.297 52.6506 42.7044 52.7524 43.0778C52.8543 43.4173 52.9901 43.7228 53.1937 43.9944C53.3974 44.2659 53.635 44.4696 53.9066 44.6054C54.2121 44.7751 54.5516 44.843 54.891 44.843C55.1966 44.843 55.5021 44.7751 55.8076 44.6733C56.0792 44.5714 56.3507 44.3678 56.5205 44.1641C56.7241 43.9265 56.8939 43.6549 57.0297 43.3154C57.1654 42.942 57.1994 42.5686 57.1994 42.1952C57.1994 41.7878 57.1654 41.4144 57.0975 41.0071C57.0297 40.6676 56.8939 40.3282 56.6902 40.0226C56.4865 39.7511 56.2489 39.5134 55.9434 39.3777C55.6039 39.2079 55.2644 39.14 54.891 39.14C54.5516 39.14 54.2121 39.2079 53.9405 39.3777C53.669 39.5134 53.4314 39.7511 53.2277 39.9887C53.024 40.2603 52.8543 40.5658 52.7864 40.9052C52.6845 41.1768 52.6166 41.5502 52.6166 41.9236Z" fill="#161515"/>
<path d="M59.6777 47.1514L59.9832 47.1853C60.085 47.2192 60.2208 47.2192 60.3226 47.2192C60.5263 47.2192 60.73 47.1514 60.8658 47.0156C61.0016 46.8798 61.1374 46.7101 61.2053 46.5064C61.3071 46.3027 61.375 46.099 61.4429 45.8953C61.5108 45.6917 61.5787 45.5219 61.6466 45.3522L59.0327 38.529H59.9153L62.0878 44.3338L64.2604 38.529H65.1091L62.597 45.2164C62.4273 45.6577 62.2915 46.0311 62.1558 46.3706C62.02 46.6761 61.8842 46.9477 61.6805 47.2532C61.5447 47.4569 61.341 47.6606 61.1374 47.7963C60.9337 47.9321 60.6961 48 60.4245 47.9661C60.2887 47.9661 60.1529 47.9661 60.0171 47.9321C59.9153 47.8982 59.7795 47.8982 59.6777 47.8642V47.1514Z" fill="#161515"/>
<path d="M70.4046 42.5007C70.4385 42.8741 70.5064 43.2475 70.6762 43.5531C70.8119 43.8246 71.0156 44.0622 71.2532 44.2659C71.4909 44.4696 71.7964 44.6054 72.0679 44.6733C72.4074 44.7751 72.7469 44.8091 73.0863 44.8091C73.4597 44.8091 73.8332 44.7751 74.1726 44.6393C74.4442 44.5375 74.7158 44.4017 74.9194 44.198C75.0892 44.0283 75.2589 43.8246 75.3268 43.587C75.4286 43.3494 75.4626 43.1117 75.4626 42.8402C75.4626 42.5347 75.3947 42.2291 75.225 41.9576C75.0552 41.72 74.8176 41.5502 74.58 41.4144C74.2745 41.2787 73.9689 41.1429 73.6634 41.075C73.324 40.9731 72.9845 40.9052 72.6111 40.8034C72.2377 40.7016 71.8982 40.6337 71.5588 40.4979C71.2193 40.3961 70.9138 40.2263 70.6422 40.0226C70.3706 39.819 70.167 39.5813 69.9972 39.2758C69.8275 38.9364 69.7257 38.529 69.7596 38.1217C69.7596 37.7822 69.8275 37.4767 69.9633 37.1712C70.0991 36.8656 70.3027 36.5941 70.5743 36.3564C70.8798 36.1188 71.2193 35.9151 71.5588 35.7794C72.0001 35.6436 72.4753 35.5757 72.9506 35.5757C73.4258 35.5757 73.901 35.6436 74.3423 35.7794C74.7158 35.9151 75.0552 36.1188 75.3268 36.3904C75.5984 36.628 75.802 36.9335 75.9039 37.273C76.0397 37.6125 76.1076 37.9859 76.1076 38.3593H75.2589C75.2589 38.0538 75.191 37.7143 75.0552 37.4427C74.9534 37.2051 74.7497 36.9675 74.546 36.7977C74.3084 36.628 74.0708 36.4922 73.7992 36.4243C73.5276 36.3564 73.2221 36.3225 72.9506 36.2886C72.5771 36.2886 72.1698 36.3564 71.7964 36.4922C71.5248 36.5941 71.2532 36.7638 71.0496 36.9675C70.8798 37.1712 70.744 37.4088 70.6762 37.6464C70.6083 37.884 70.6083 38.1217 70.6422 38.3593C70.6762 38.6308 70.8119 38.9024 71.0156 39.1061C71.2193 39.3098 71.4569 39.4456 71.7285 39.5474C72.034 39.6832 72.3395 39.7511 72.645 39.819C72.9845 39.8869 73.324 39.9887 73.6634 40.0566C74.0029 40.1245 74.3424 40.2263 74.6818 40.3621C74.9873 40.4639 75.2928 40.6337 75.5644 40.8374C75.836 41.041 76.0397 41.2787 76.1754 41.5842C76.3452 41.9236 76.4131 42.331 76.4131 42.7044C76.447 43.4852 76.1076 44.232 75.4965 44.7412C74.8855 45.2164 74.0368 45.454 72.9506 45.454C72.4753 45.454 72.034 45.3862 71.5927 45.2504C71.1853 45.1485 70.8119 44.9449 70.5064 44.6733C70.2009 44.4017 69.9633 44.0962 69.7936 43.7228C69.6238 43.3154 69.522 42.8402 69.522 42.3649L70.4046 42.5007Z" fill="#161515"/>
<path d="M82.6933 40.6676C82.5915 40.1924 82.3199 39.785 81.9805 39.4795C81.6071 39.174 81.1658 39.0382 80.6905 39.0721C80.351 39.0721 79.9776 39.14 79.6721 39.3098C79.4005 39.4795 79.1629 39.6832 78.9592 39.9547C78.7556 40.2263 78.6198 40.5658 78.5519 40.8713C78.4501 41.2108 78.4161 41.5502 78.4161 41.9236C78.4161 42.2631 78.4501 42.6365 78.5519 42.976C78.6198 43.3154 78.7556 43.6209 78.9592 43.8925C79.129 44.1641 79.3666 44.3678 79.6721 44.5375C79.9776 44.7072 80.351 44.7751 80.7245 44.7751C81.2336 44.8091 81.7428 44.6393 82.1162 44.2999C82.4897 43.9604 82.7273 43.4852 82.7952 42.976H83.6099C83.542 43.3154 83.4402 43.6888 83.2704 43.9944C83.1346 44.2999 82.931 44.5714 82.6933 44.8091C82.4557 45.0467 82.1502 45.2164 81.8447 45.3183C81.03 45.5898 80.1134 45.5559 79.2987 45.2164C78.9253 45.0467 78.5858 44.7751 78.3143 44.4696C78.0427 44.1301 77.873 43.7567 77.7372 43.3494C77.6014 42.9081 77.5674 42.4328 77.5674 41.9576C77.5674 41.4823 77.6353 41.041 77.7711 40.5997C77.9069 40.1924 78.1106 39.785 78.3822 39.4456C78.6537 39.1061 78.9932 38.8345 79.3666 38.6648C79.774 38.4611 80.2492 38.3593 80.7245 38.3593C81.4034 38.3253 82.0823 38.529 82.6254 38.9364C83.1346 39.3777 83.4741 40.0226 83.542 40.7016H82.6933V40.6676Z" fill="#161515"/>
<path d="M88.2602 41.3805C88.396 41.3805 88.5997 41.3465 88.8034 41.3126C88.9731 41.2787 89.1428 41.2447 89.3126 41.1768C89.4483 41.1089 89.5162 41.0071 89.5502 40.8713C89.5841 40.7355 89.5841 40.5997 89.5841 40.4639C89.5841 40.0905 89.4483 39.7511 89.2107 39.4795C88.8373 39.174 88.3621 39.0382 87.9208 39.1061C87.6831 39.1061 87.4116 39.14 87.1739 39.174C86.9703 39.2079 86.7666 39.3098 86.5629 39.4116C86.3932 39.5474 86.2574 39.6832 86.1555 39.8869C86.0537 40.1245 85.9519 40.3621 85.9519 40.6337H85.1711C85.1711 40.2942 85.2729 39.9208 85.4427 39.6153C85.5785 39.3437 85.8161 39.1061 86.0537 38.9364C86.3253 38.7666 86.5969 38.6308 86.9024 38.529C87.2418 38.4611 87.5813 38.3932 87.9547 38.3932C88.2942 38.3932 88.5997 38.4272 88.9052 38.4951C89.1768 38.563 89.4483 38.6648 89.686 38.8345C89.9236 39.0043 90.0933 39.2419 90.1952 39.4795C90.3309 39.785 90.3988 40.1245 90.3649 40.4639V44.1301C90.3649 44.4357 90.4328 44.6393 90.5346 44.7072C90.6365 44.7751 90.8741 44.7751 91.1796 44.6393V45.2504L90.908 45.3183C90.8062 45.3522 90.6704 45.3861 90.5685 45.3861C90.4667 45.3861 90.3309 45.3862 90.2291 45.3522C90.1273 45.3522 89.9915 45.2843 89.9236 45.2164C89.8557 45.1485 89.7878 45.0806 89.7199 44.9788C89.686 44.877 89.652 44.7751 89.6181 44.6733C89.5841 44.5714 89.5841 44.4357 89.5841 44.3338C89.2786 44.6733 88.8712 44.9788 88.4299 45.1825C87.9886 45.3862 87.5134 45.488 87.0382 45.488C86.7326 45.488 86.4611 45.454 86.1895 45.3522C85.9179 45.2843 85.6803 45.1485 85.4766 44.9788C85.2729 44.8091 85.1032 44.6054 84.9674 44.3678C84.8316 44.0962 84.7638 43.8246 84.7977 43.5191C84.7977 42.3649 85.5785 41.686 87.1739 41.4823L88.2602 41.3805ZM89.5841 41.7539C89.2447 41.8897 88.9052 41.9915 88.5657 42.0255C88.2263 42.0594 87.8868 42.0934 87.5473 42.1273C87.0381 42.1273 86.5629 42.2631 86.1555 42.5347C85.8161 42.7723 85.6464 43.1457 85.6464 43.5531C85.6464 43.7567 85.6803 43.9265 85.7821 44.0962C85.85 44.232 85.9858 44.3678 86.1216 44.4696C86.2574 44.5714 86.4271 44.6393 86.5968 44.7072C86.7666 44.7412 86.9703 44.7751 87.14 44.7751C87.4455 44.7751 87.751 44.7412 88.0565 44.6393C88.3281 44.5714 88.5997 44.4357 88.8373 44.2659C89.0749 44.0962 89.2447 43.8925 89.3804 43.6549C89.5162 43.3833 89.5841 43.0778 89.5841 42.7723V41.7539Z" fill="#161515"/>
<path d="M93.2163 45.3183H92.4355V38.563H93.2163V39.5134C93.4878 39.2079 93.8273 38.9364 94.2007 38.6987C94.5741 38.4951 94.9815 38.3593 95.4228 38.3932C95.8301 38.3932 96.2036 38.4611 96.577 38.5969C96.9504 38.7666 97.2559 39.0043 97.4935 39.3437C97.6632 39.5813 97.7651 39.819 97.799 40.0905C97.833 40.3621 97.833 40.6337 97.833 40.9052V45.3183H97.0522V40.9052C97.0861 40.43 96.9504 39.9208 96.6448 39.5474C96.2714 39.2079 95.7962 39.0382 95.287 39.1061C95.0494 39.1061 94.8117 39.14 94.6081 39.2079C94.4044 39.2758 94.2347 39.3777 94.0649 39.5134C93.8952 39.6153 93.7594 39.785 93.6576 39.9208C93.5557 40.0566 93.4539 40.2263 93.386 40.43C93.3181 40.6337 93.2502 40.8374 93.2502 41.075C93.2163 41.2787 93.2163 41.5163 93.2163 41.72V45.3183Z" fill="#161515"/>
<path d="M104.928 35.9151H105.709V45.3183H104.928V44.1301H104.894C104.792 44.3678 104.622 44.5375 104.453 44.7412C104.283 44.9109 104.079 45.0467 103.876 45.1485C103.672 45.2504 103.434 45.3522 103.231 45.4201C102.993 45.488 102.789 45.5219 102.552 45.5219C102.076 45.5219 101.601 45.454 101.16 45.2504C100.786 45.0806 100.481 44.8091 100.209 44.5036C99.9379 44.1641 99.7682 43.7907 99.6664 43.3833C99.5645 42.942 99.4966 42.4668 99.4966 41.9915C99.4966 41.5163 99.5645 41.075 99.6664 40.6337C99.7682 40.2263 99.9719 39.819 100.209 39.4795C100.447 39.14 100.786 38.8685 101.16 38.6987C101.567 38.4951 102.042 38.3932 102.484 38.3932C102.959 38.3932 103.434 38.4951 103.876 38.6987C104.317 38.9024 104.656 39.2419 104.928 39.6492V35.9151ZM104.928 41.9236C104.928 41.5502 104.894 41.1768 104.758 40.8374C104.656 40.4979 104.521 40.1924 104.317 39.9208C104.113 39.6832 103.876 39.4456 103.604 39.3098C103.299 39.14 102.993 39.0721 102.654 39.0721C102.28 39.0721 101.907 39.14 101.601 39.3098C101.296 39.4795 101.058 39.6832 100.854 39.9547C100.651 40.2603 100.515 40.5658 100.447 40.9392C100.345 41.3465 100.311 41.72 100.345 42.1273C100.345 42.5007 100.413 42.9081 100.515 43.2475C100.617 43.5531 100.786 43.8246 101.024 44.0962C101.228 44.3338 101.465 44.5035 101.737 44.6054C102.042 44.7412 102.348 44.7751 102.654 44.7751C102.993 44.7751 103.332 44.7072 103.638 44.5375C103.91 44.4017 104.181 44.198 104.351 43.9265C104.555 43.6549 104.69 43.3494 104.792 43.0099C104.86 42.6704 104.928 42.297 104.928 41.9236Z" fill="#161515"/>
<path d="M107.745 37.0693V35.9151H108.594V37.0693H107.745ZM107.779 45.3183V38.563H108.56V45.3183H107.779Z" fill="#161515"/>
<path d="M111.378 45.3183H110.597V38.563H111.378V39.5134C111.683 39.2079 111.989 38.9364 112.362 38.6987C112.736 38.4951 113.143 38.3593 113.584 38.3932C113.992 38.3932 114.365 38.4611 114.738 38.5969C115.112 38.7666 115.417 39.0043 115.655 39.3437C115.825 39.5813 115.927 39.819 115.96 40.0905C115.994 40.3621 115.994 40.6337 115.994 40.9052V45.3183H115.214V40.9052C115.248 40.3961 115.112 39.9208 114.806 39.5474C114.433 39.2079 113.958 39.0382 113.448 39.1061C113.211 39.1061 112.973 39.14 112.77 39.2079C112.566 39.2758 112.396 39.3777 112.226 39.5134C112.057 39.6153 111.921 39.785 111.819 39.9208C111.717 40.0566 111.615 40.2263 111.547 40.43C111.48 40.6337 111.412 40.8374 111.412 41.075C111.412 41.2787 111.378 41.4823 111.378 41.72V45.3183Z" fill="#161515"/>
<path d="M120.951 41.3805C121.086 41.3805 121.29 41.3465 121.494 41.3126C121.663 41.2787 121.833 41.2447 122.003 41.1768C122.139 41.1089 122.207 41.0071 122.241 40.8713C122.274 40.7355 122.274 40.5997 122.274 40.4639C122.274 40.0905 122.139 39.7511 121.901 39.4795C121.528 39.174 121.052 39.0382 120.611 39.1061C120.373 39.1061 120.102 39.14 119.864 39.174C119.661 39.2079 119.457 39.3098 119.253 39.4116C119.084 39.5474 118.948 39.6832 118.846 39.8869C118.71 40.1245 118.642 40.3621 118.642 40.6337H117.827C117.827 40.2942 117.929 39.9208 118.099 39.6153C118.235 39.3437 118.439 39.1061 118.71 38.9364C118.982 38.7666 119.253 38.6308 119.559 38.529C119.898 38.4611 120.238 38.3932 120.611 38.3932C120.951 38.3932 121.256 38.4272 121.562 38.4951C121.833 38.563 122.105 38.6648 122.342 38.8345C122.58 39.0043 122.75 39.2419 122.852 39.4795C122.987 39.785 123.055 40.1245 123.055 40.4639V44.1301C123.055 44.4357 123.123 44.6393 123.225 44.7072C123.327 44.7751 123.564 44.7751 123.904 44.6393V45.2504L123.632 45.3183C123.53 45.3522 123.395 45.3861 123.293 45.3861C123.191 45.3861 123.055 45.3862 122.953 45.3522C122.852 45.3522 122.716 45.2843 122.648 45.2164C122.58 45.1485 122.512 45.0806 122.444 44.9788C122.41 44.877 122.376 44.7751 122.342 44.6733C122.308 44.5714 122.308 44.4357 122.308 44.3338C122.003 44.6733 121.596 44.9788 121.154 45.1825C120.713 45.3862 120.238 45.488 119.762 45.488C119.457 45.488 119.151 45.454 118.88 45.3522C118.608 45.2843 118.371 45.1485 118.167 44.9788C117.963 44.8091 117.794 44.6054 117.658 44.3678C117.522 44.0962 117.454 43.8246 117.488 43.5191C117.488 42.3649 118.269 41.686 119.864 41.4823L120.951 41.3805ZM122.274 41.7539C121.935 41.8897 121.596 41.9915 121.256 42.0255C120.917 42.0594 120.577 42.0934 120.238 42.1273C119.729 42.1273 119.253 42.2631 118.846 42.5347C118.506 42.7723 118.303 43.1457 118.337 43.5531C118.337 43.7567 118.371 43.9265 118.472 44.0962C118.54 44.232 118.676 44.3678 118.812 44.4696C118.948 44.5714 119.117 44.6393 119.287 44.7072C119.457 44.7412 119.661 44.7751 119.83 44.7751C120.136 44.7751 120.441 44.7412 120.747 44.6393C121.018 44.5714 121.29 44.4357 121.528 44.2659C121.765 44.0962 121.935 43.8925 122.071 43.6549C122.207 43.3833 122.274 43.0778 122.274 42.7723V41.7539Z" fill="#161515"/>
<path d="M124.379 38.563H125.228L127.434 44.3678L129.641 38.563H130.489L127.876 45.3183H126.993L124.379 38.563Z" fill="#161515"/>
<path d="M131.712 37.0693V35.9151H132.56V37.0693H131.712ZM131.745 45.3183V38.563H132.526V45.3183H131.745Z" fill="#161515"/>
<path d="M137.652 41.3805C137.788 41.3805 137.992 41.3465 138.195 41.3126C138.365 41.2787 138.535 41.2447 138.704 41.1768C138.84 41.1089 138.908 41.0071 138.942 40.8713C138.976 40.7355 138.976 40.5997 138.976 40.4639C138.976 40.0905 138.84 39.7511 138.603 39.4795C138.229 39.174 137.754 39.0382 137.313 39.1061C137.075 39.1061 136.803 39.14 136.566 39.174C136.362 39.2079 136.158 39.3098 135.955 39.4116C135.785 39.5474 135.649 39.6832 135.547 39.8869C135.446 40.1245 135.344 40.3621 135.344 40.6337H134.529C134.529 40.2942 134.631 39.9208 134.801 39.6153C134.936 39.3437 135.14 39.1061 135.412 38.9364C135.683 38.7666 135.955 38.6308 136.26 38.529C136.6 38.4611 136.939 38.3932 137.313 38.3932C137.652 38.3932 137.958 38.4272 138.263 38.4951C138.535 38.563 138.806 38.6648 139.044 38.8345C139.282 39.0043 139.451 39.2419 139.553 39.4795C139.689 39.785 139.757 40.1245 139.757 40.4639V44.1301C139.757 44.4357 139.825 44.6393 139.927 44.7072C140.028 44.7751 140.266 44.7751 140.572 44.6393V45.2504L140.3 45.3183C140.198 45.3522 140.062 45.3861 139.96 45.3861C139.859 45.3861 139.723 45.3862 139.621 45.3522C139.519 45.3522 139.383 45.2843 139.315 45.2164C139.248 45.1485 139.18 45.0806 139.112 44.9788C139.078 44.877 139.044 44.7751 139.01 44.6733C138.976 44.5714 138.976 44.4357 138.976 44.3338C138.671 44.6733 138.263 44.9788 137.822 45.1825C137.381 45.3862 136.905 45.488 136.43 45.488C136.125 45.488 135.853 45.454 135.581 45.3522C135.31 45.2843 135.072 45.1485 134.869 44.9788C134.665 44.8091 134.495 44.6054 134.359 44.3678C134.224 44.0962 134.156 43.8246 134.19 43.5191C134.19 42.3649 134.97 41.686 136.566 41.4823L137.652 41.3805ZM138.976 41.7539C138.637 41.8897 138.297 41.9915 137.958 42.0255C137.618 42.0594 137.279 42.0934 136.939 42.1273C136.43 42.1273 135.955 42.2631 135.547 42.5347C135.208 42.7723 135.038 43.1457 135.038 43.5531C135.038 43.9265 135.208 44.2659 135.48 44.4696C135.615 44.5714 135.785 44.6393 135.955 44.7072C136.125 44.7412 136.328 44.7751 136.498 44.7751C136.803 44.7751 137.109 44.7412 137.414 44.6393C137.686 44.5714 137.958 44.4357 138.195 44.2659C138.433 44.0962 138.603 43.8925 138.738 43.6549C138.874 43.3833 138.942 43.0778 138.942 42.7723L138.976 41.7539Z" fill="#161515"/>
</g>
</svg>
