<svg width="42" height="60" viewBox="0 0 42 60" fill="none" xmlns="http://www.w3.org/2000/svg">
<path d="M20.8557 0C9.35596 0 0 9.35596 0 20.8557C0 35.3097 20.8762 60 20.8762 60C20.8762 60 41.7114 34.5989 41.7114 20.8557C41.7114 9.35596 32.3558 0 20.8557 0Z" fill="#BD2539"/>
<path d="M30 11.25V26.1992C30 26.1992 30 31.2246 25.0127 31.2246V23.7627H15.0127V26.25H22.5191C22.5191 26.25 22.5191 31.25 17.5063 31.25H10V23.7119C10 18.7373 15.0127 18.7373 15.0127 18.7373H22.5191C25.0127 18.7373 25.0127 16.2754 25.0127 16.2754H10.0254C10.0254 16.2754 10 11.25 15.0127 11.25H30Z" fill="white"/>
</svg>
