<svg width="15" height="15" viewBox="0 0 15 15" fill="none" xmlns="http://www.w3.org/2000/svg">
<rect width="15" height="15" rx="4" fill="#FFDD2D"/>
<path d="M2.72736 2.72729H12.2728V7.52893C12.2728 8.75914 11.616 9.89743 10.5509 10.5117L7.50008 12.2727L4.44928 10.5117C3.38414 9.89573 2.72736 8.75914 2.72736 7.52893V2.72729Z" fill="white"/>
<path fill-rule="evenodd" clip-rule="evenodd" d="M5.34802 5.25415V6.74808C5.55221 6.51667 5.92313 6.36183 6.34849 6.36183H6.8096V8.09737C6.8096 8.55848 6.68374 8.96341 6.49822 9.18637H8.50433C8.31887 8.96341 8.19294 8.56018 8.19294 8.09907V6.36183H8.65406C9.07774 6.36183 9.45035 6.51837 9.65456 6.74808V5.25415H5.34802Z" fill="#333333"/>
</svg>
