<svg width="89" height="22" viewBox="0 0 89 22" fill="none" xmlns="http://www.w3.org/2000/svg">
<rect width="89" height="22" rx="4" fill="#FFDD2D"/>
<path d="M4 4H18V11.0424C18 12.8467 17.0367 14.5162 15.4745 15.4171L11 18L6.52549 15.4171C4.96328 14.5137 4 12.8467 4 11.0424V4Z" fill="white"/>
<path fill-rule="evenodd" clip-rule="evenodd" d="M7.84375 7.70605V9.89714C8.14322 9.55775 8.68724 9.33066 9.3111 9.33066H9.9874V11.8761C9.9874 12.5524 9.8028 13.1463 9.5307 13.4733H12.473C12.201 13.1463 12.0163 12.5549 12.0163 11.8786V9.33066H12.6926C13.314 9.33066 13.8605 9.56024 14.16 9.89714V7.70605H7.84375Z" fill="#333333"/>
<path d="M23.996 6.456H27.512C29.144 6.456 30.356 7.14 30.356 8.916C30.356 10.848 29.108 11.496 27.44 11.496H25.124V15H23.996V6.456ZM25.124 7.428V10.548H27.296C28.388 10.548 29.228 10.248 29.228 8.988C29.228 7.62 28.256 7.428 27.14 7.428H25.124ZM37.0333 14.184V14.976C36.8173 15.06 36.5653 15.096 36.3373 15.096C35.7613 15.096 35.4493 14.772 35.4373 14.184C34.8253 14.868 34.1533 15.168 33.1933 15.168C31.9693 15.168 31.2133 14.496 31.2133 13.416C31.2133 12.312 31.9453 11.664 33.4093 11.484C34.8853 11.304 35.3893 11.34 35.3893 10.5C35.3893 9.84 34.8973 9.48 33.9853 9.48C33.0373 9.48 32.5452 9.828 32.4493 10.74H31.4533C31.4893 9.42 32.4493 8.64 34.0453 8.64C34.8733 8.64 35.5813 8.856 35.9893 9.24C36.4213 9.66 36.4093 10.296 36.4093 10.848C36.4093 11.772 36.3613 12.684 36.3613 13.608C36.3613 14.064 36.4693 14.22 36.7812 14.22C36.8773 14.22 36.9253 14.208 37.0333 14.184ZM35.3893 11.784C35.0053 12.072 34.4773 12.096 34.0213 12.156C33.2773 12.252 32.2693 12.336 32.2693 13.332C32.2693 13.968 32.7373 14.364 33.5053 14.364C34.4653 14.364 35.3893 13.704 35.3893 12.912V11.784ZM43.3226 12.744C43.1426 14.22 42.1586 15.18 40.6226 15.18C38.7026 15.18 37.6826 13.872 37.6826 11.988C37.6826 9.924 38.8346 8.628 40.6586 8.628C42.1706 8.628 43.1186 9.42 43.2866 10.824H42.2306C42.0506 9.948 41.5106 9.48 40.6706 9.48C39.4946 9.48 38.7506 10.416 38.7506 11.904C38.7506 13.416 39.4466 14.328 40.5986 14.328C41.5226 14.328 42.1346 13.764 42.2906 12.744H43.3226ZM49.7679 12.744C49.5879 14.22 48.6039 15.18 47.0679 15.18C45.1479 15.18 44.1279 13.872 44.1279 11.988C44.1279 9.924 45.2799 8.628 47.1039 8.628C48.6159 8.628 49.5639 9.42 49.7319 10.824H48.6759C48.4959 9.948 47.9559 9.48 47.1159 9.48C45.9399 9.48 45.1959 10.416 45.1959 11.904C45.1959 13.416 45.8919 14.328 47.0439 14.328C47.9679 14.328 48.5799 13.764 48.7359 12.744H49.7679ZM51.8452 8.808V9.684C52.3252 8.916 53.0212 8.616 53.9332 8.616C55.6612 8.616 56.7532 9.864 56.7532 11.868C56.7532 13.872 55.6732 15.156 53.9812 15.156C53.0692 15.156 52.4332 14.856 51.9052 14.136V17.388H50.8852V8.808H51.8452ZM53.7772 9.468C52.5892 9.468 51.8692 10.38 51.8692 11.88C51.8692 13.38 52.6132 14.292 53.8132 14.292C54.9772 14.292 55.6972 13.368 55.6972 11.88C55.6972 10.38 54.9772 9.468 53.7772 9.468ZM60.7105 8.628C62.5825 8.628 63.6745 9.816 63.6745 11.868C63.6745 13.968 62.5825 15.192 60.6985 15.192C58.8025 15.192 57.6745 13.968 57.6745 11.928C57.6745 9.888 58.8385 8.628 60.7105 8.628ZM60.6865 9.48C59.4865 9.48 58.7305 10.428 58.7305 11.904C58.7305 13.428 59.4625 14.328 60.7105 14.328C61.9105 14.328 62.6305 13.416 62.6305 11.892C62.6305 10.416 61.8865 9.48 60.6865 9.48ZM69.6771 15H68.6571V12.264C68.4411 12.324 67.3611 12.54 66.7371 12.54C65.5011 12.54 64.7211 11.964 64.7211 10.764V8.808H65.7411V10.596C65.7411 11.388 66.1731 11.676 66.9291 11.676C67.5291 11.676 68.4291 11.472 68.6571 11.4V8.808H69.6771V15ZM76.7612 15H75.4652L73.2092 11.952L72.2372 12.9V15H71.2172V8.808H72.2372V11.76L75.0692 8.808H76.4372L73.9412 11.244L76.7612 15ZM82.9239 14.184V14.976C82.7079 15.06 82.4559 15.096 82.2279 15.096C81.6519 15.096 81.3399 14.772 81.3279 14.184C80.7159 14.868 80.0439 15.168 79.0839 15.168C77.8599 15.168 77.1039 14.496 77.1039 13.416C77.1039 12.312 77.8359 11.664 79.2999 11.484C80.7759 11.304 81.2799 11.34 81.2799 10.5C81.2799 9.84 80.7879 9.48 79.8759 9.48C78.9279 9.48 78.4359 9.828 78.3399 10.74H77.3439C77.3799 9.42 78.3399 8.64 79.9359 8.64C80.7639 8.64 81.4719 8.856 81.8799 9.24C82.3119 9.66 82.2999 10.296 82.2999 10.848C82.2999 11.772 82.2519 12.684 82.2519 13.608C82.2519 14.064 82.3599 14.22 82.6719 14.22C82.7679 14.22 82.8159 14.208 82.9239 14.184ZM81.2799 11.784C80.8959 12.072 80.3679 12.096 79.9119 12.156C79.1679 12.252 78.1599 12.336 78.1599 13.332C78.1599 13.968 78.6279 14.364 79.3959 14.364C80.3559 14.364 81.2799 13.704 81.2799 12.912V11.784Z" fill="#1D273A"/>
</svg>
